%TF.GenerationSoftware,KiCad,Pcbnew,7.0.5*%
%TF.CreationDate,2023-07-13T08:51:00+02:00*%
%TF.ProjectId,Encoder-Holder,456e636f-6465-4722-9d48-6f6c6465722e,rev?*%
%TF.SameCoordinates,Original*%
%TF.FileFunction,Soldermask,Bot*%
%TF.FilePolarity,Negative*%
%FSLAX46Y46*%
G04 Gerber Fmt 4.6, Leading zero omitted, Abs format (unit mm)*
G04 Created by KiCad (PCBNEW 7.0.5) date 2023-07-13 08:51:00*
%MOMM*%
%LPD*%
G01*
G04 APERTURE LIST*
%ADD10R,2.000000X2.000000*%
%ADD11C,2.000000*%
%ADD12R,3.200000X2.000000*%
%ADD13R,1.700000X1.700000*%
%ADD14O,1.700000X1.700000*%
%ADD15R,1.800000X1.800000*%
%ADD16C,1.800000*%
G04 APERTURE END LIST*
D10*
%TO.C,SW5*%
X146000000Y-77500000D03*
D11*
X146000000Y-82500000D03*
X146000000Y-80000000D03*
D12*
X153500000Y-74400000D03*
X153500000Y-85600000D03*
D11*
X160500000Y-82500000D03*
X160500000Y-77500000D03*
%TD*%
D10*
%TO.C,SW3*%
X104000000Y-100000000D03*
D11*
X104000000Y-105000000D03*
X104000000Y-102500000D03*
D12*
X111500000Y-96900000D03*
X111500000Y-108100000D03*
D11*
X118500000Y-105000000D03*
X118500000Y-100000000D03*
%TD*%
D13*
%TO.C,J2*%
X136290000Y-96710000D03*
D14*
X136290000Y-99250000D03*
X133750000Y-96710000D03*
X133750000Y-99250000D03*
X131210000Y-96710000D03*
X131210000Y-99250000D03*
X128670000Y-96710000D03*
X128670000Y-99250000D03*
%TD*%
D10*
%TO.C,SW1*%
X104000000Y-55000000D03*
D11*
X104000000Y-60000000D03*
X104000000Y-57500000D03*
D12*
X111500000Y-51900000D03*
X111500000Y-63100000D03*
D11*
X118500000Y-60000000D03*
X118500000Y-55000000D03*
%TD*%
D10*
%TO.C,SW2*%
X104000000Y-77500000D03*
D11*
X104000000Y-82500000D03*
X104000000Y-80000000D03*
D12*
X111500000Y-74400000D03*
X111500000Y-85600000D03*
D11*
X118500000Y-82500000D03*
X118500000Y-77500000D03*
%TD*%
D15*
%TO.C,D2*%
X131210000Y-77500000D03*
D16*
X133750000Y-77500000D03*
%TD*%
D15*
%TO.C,D3*%
X131210000Y-82500000D03*
D16*
X133750000Y-82500000D03*
%TD*%
D15*
%TO.C,D4*%
X131225000Y-87500000D03*
D16*
X133765000Y-87500000D03*
%TD*%
D15*
%TO.C,D1*%
X131210000Y-72500000D03*
D16*
X133750000Y-72500000D03*
%TD*%
D10*
%TO.C,SW6*%
X146000000Y-100000000D03*
D11*
X146000000Y-105000000D03*
X146000000Y-102500000D03*
D12*
X153500000Y-96900000D03*
X153500000Y-108100000D03*
D11*
X160500000Y-105000000D03*
X160500000Y-100000000D03*
%TD*%
D13*
%TO.C,J1*%
X123625000Y-63290000D03*
D14*
X123625000Y-60750000D03*
X126165000Y-63290000D03*
X126165000Y-60750000D03*
X128705000Y-63290000D03*
X128705000Y-60750000D03*
X131245000Y-63290000D03*
X131245000Y-60750000D03*
X133785000Y-63290000D03*
X133785000Y-60750000D03*
X136325000Y-63290000D03*
X136325000Y-60750000D03*
X138865000Y-63290000D03*
X138865000Y-60750000D03*
X141405000Y-63290000D03*
X141405000Y-60750000D03*
%TD*%
D10*
%TO.C,SW4*%
X146000000Y-55000000D03*
D11*
X146000000Y-60000000D03*
X146000000Y-57500000D03*
D12*
X153500000Y-51900000D03*
X153500000Y-63100000D03*
D11*
X160500000Y-60000000D03*
X160500000Y-55000000D03*
%TD*%
M02*
