%TF.GenerationSoftware,KiCad,Pcbnew,7.0.5*%
%TF.CreationDate,2023-07-13T08:51:00+02:00*%
%TF.ProjectId,Encoder-Holder,456e636f-6465-4722-9d48-6f6c6465722e,rev?*%
%TF.SameCoordinates,Original*%
%TF.FileFunction,Copper,L2,Bot*%
%TF.FilePolarity,Positive*%
%FSLAX46Y46*%
G04 Gerber Fmt 4.6, Leading zero omitted, Abs format (unit mm)*
G04 Created by KiCad (PCBNEW 7.0.5) date 2023-07-13 08:51:00*
%MOMM*%
%LPD*%
G01*
G04 APERTURE LIST*
%TA.AperFunction,ComponentPad*%
%ADD10R,2.000000X2.000000*%
%TD*%
%TA.AperFunction,ComponentPad*%
%ADD11C,2.000000*%
%TD*%
%TA.AperFunction,ComponentPad*%
%ADD12R,3.200000X2.000000*%
%TD*%
%TA.AperFunction,ComponentPad*%
%ADD13R,1.700000X1.700000*%
%TD*%
%TA.AperFunction,ComponentPad*%
%ADD14O,1.700000X1.700000*%
%TD*%
%TA.AperFunction,ComponentPad*%
%ADD15R,1.800000X1.800000*%
%TD*%
%TA.AperFunction,ComponentPad*%
%ADD16C,1.800000*%
%TD*%
%TA.AperFunction,ViaPad*%
%ADD17C,0.800000*%
%TD*%
%TA.AperFunction,Conductor*%
%ADD18C,0.250000*%
%TD*%
%TA.AperFunction,Conductor*%
%ADD19C,0.500000*%
%TD*%
%TA.AperFunction,Conductor*%
%ADD20C,1.000000*%
%TD*%
G04 APERTURE END LIST*
D10*
%TO.P,SW5,A,A*%
%TO.N,Net-(J1-Pin_13)*%
X146000000Y-77500000D03*
D11*
%TO.P,SW5,B,B*%
%TO.N,Net-(J1-Pin_14)*%
X146000000Y-82500000D03*
%TO.P,SW5,C,C*%
%TO.N,Net-(J1-Pin_9)*%
X146000000Y-80000000D03*
D12*
%TO.P,SW5,MP*%
%TO.N,N/C*%
X153500000Y-74400000D03*
X153500000Y-85600000D03*
D11*
%TO.P,SW5,S1,S1*%
%TO.N,Net-(J1-Pin_15)*%
X160500000Y-82500000D03*
%TO.P,SW5,S2,S2*%
%TO.N,Net-(J1-Pin_10)*%
X160500000Y-77500000D03*
%TD*%
D10*
%TO.P,SW3,A,A*%
%TO.N,Net-(J1-Pin_13)*%
X104000000Y-100000000D03*
D11*
%TO.P,SW3,B,B*%
%TO.N,Net-(J1-Pin_14)*%
X104000000Y-105000000D03*
%TO.P,SW3,C,C*%
%TO.N,Net-(J1-Pin_5)*%
X104000000Y-102500000D03*
D12*
%TO.P,SW3,MP*%
%TO.N,N/C*%
X111500000Y-96900000D03*
X111500000Y-108100000D03*
D11*
%TO.P,SW3,S1,S1*%
%TO.N,Net-(J1-Pin_15)*%
X118500000Y-105000000D03*
%TO.P,SW3,S2,S2*%
%TO.N,Net-(J1-Pin_6)*%
X118500000Y-100000000D03*
%TD*%
D13*
%TO.P,J2,1,Pin_1*%
%TO.N,Net-(D1-K)*%
X136290000Y-96710000D03*
D14*
%TO.P,J2,2,Pin_2*%
%TO.N,Net-(D1-A)*%
X136290000Y-99250000D03*
%TO.P,J2,3,Pin_3*%
%TO.N,Net-(D2-K)*%
X133750000Y-96710000D03*
%TO.P,J2,4,Pin_4*%
%TO.N,Net-(D2-A)*%
X133750000Y-99250000D03*
%TO.P,J2,5,Pin_5*%
%TO.N,Net-(D3-K)*%
X131210000Y-96710000D03*
%TO.P,J2,6,Pin_6*%
%TO.N,Net-(D3-A)*%
X131210000Y-99250000D03*
%TO.P,J2,7,Pin_7*%
%TO.N,Net-(D4-K)*%
X128670000Y-96710000D03*
%TO.P,J2,8,Pin_8*%
%TO.N,Net-(D4-A)*%
X128670000Y-99250000D03*
%TD*%
D10*
%TO.P,SW1,A,A*%
%TO.N,Net-(J1-Pin_13)*%
X104000000Y-55000000D03*
D11*
%TO.P,SW1,B,B*%
%TO.N,Net-(J1-Pin_14)*%
X104000000Y-60000000D03*
%TO.P,SW1,C,C*%
%TO.N,Net-(J1-Pin_1)*%
X104000000Y-57500000D03*
D12*
%TO.P,SW1,MP*%
%TO.N,N/C*%
X111500000Y-51900000D03*
X111500000Y-63100000D03*
D11*
%TO.P,SW1,S1,S1*%
%TO.N,Net-(J1-Pin_15)*%
X118500000Y-60000000D03*
%TO.P,SW1,S2,S2*%
%TO.N,Net-(J1-Pin_2)*%
X118500000Y-55000000D03*
%TD*%
D10*
%TO.P,SW2,A,A*%
%TO.N,Net-(J1-Pin_13)*%
X104000000Y-77500000D03*
D11*
%TO.P,SW2,B,B*%
%TO.N,Net-(J1-Pin_14)*%
X104000000Y-82500000D03*
%TO.P,SW2,C,C*%
%TO.N,Net-(J1-Pin_3)*%
X104000000Y-80000000D03*
D12*
%TO.P,SW2,MP*%
%TO.N,N/C*%
X111500000Y-74400000D03*
X111500000Y-85600000D03*
D11*
%TO.P,SW2,S1,S1*%
%TO.N,Net-(J1-Pin_15)*%
X118500000Y-82500000D03*
%TO.P,SW2,S2,S2*%
%TO.N,Net-(J1-Pin_4)*%
X118500000Y-77500000D03*
%TD*%
D15*
%TO.P,D2,1,K*%
%TO.N,Net-(D2-K)*%
X131210000Y-77500000D03*
D16*
%TO.P,D2,2,A*%
%TO.N,Net-(D2-A)*%
X133750000Y-77500000D03*
%TD*%
D15*
%TO.P,D3,1,K*%
%TO.N,Net-(D3-K)*%
X131210000Y-82500000D03*
D16*
%TO.P,D3,2,A*%
%TO.N,Net-(D3-A)*%
X133750000Y-82500000D03*
%TD*%
D15*
%TO.P,D4,1,K*%
%TO.N,Net-(D4-K)*%
X131225000Y-87500000D03*
D16*
%TO.P,D4,2,A*%
%TO.N,Net-(D4-A)*%
X133765000Y-87500000D03*
%TD*%
D15*
%TO.P,D1,1,K*%
%TO.N,Net-(D1-K)*%
X131210000Y-72500000D03*
D16*
%TO.P,D1,2,A*%
%TO.N,Net-(D1-A)*%
X133750000Y-72500000D03*
%TD*%
D10*
%TO.P,SW6,A,A*%
%TO.N,Net-(J1-Pin_13)*%
X146000000Y-100000000D03*
D11*
%TO.P,SW6,B,B*%
%TO.N,Net-(J1-Pin_14)*%
X146000000Y-105000000D03*
%TO.P,SW6,C,C*%
%TO.N,Net-(J1-Pin_7)*%
X146000000Y-102500000D03*
D12*
%TO.P,SW6,MP*%
%TO.N,N/C*%
X153500000Y-96900000D03*
X153500000Y-108100000D03*
D11*
%TO.P,SW6,S1,S1*%
%TO.N,Net-(J1-Pin_15)*%
X160500000Y-105000000D03*
%TO.P,SW6,S2,S2*%
%TO.N,Net-(J1-Pin_8)*%
X160500000Y-100000000D03*
%TD*%
D13*
%TO.P,J1,1,Pin_1*%
%TO.N,Net-(J1-Pin_1)*%
X123625000Y-63290000D03*
D14*
%TO.P,J1,2,Pin_2*%
%TO.N,Net-(J1-Pin_2)*%
X123625000Y-60750000D03*
%TO.P,J1,3,Pin_3*%
%TO.N,Net-(J1-Pin_3)*%
X126165000Y-63290000D03*
%TO.P,J1,4,Pin_4*%
%TO.N,Net-(J1-Pin_4)*%
X126165000Y-60750000D03*
%TO.P,J1,5,Pin_5*%
%TO.N,Net-(J1-Pin_5)*%
X128705000Y-63290000D03*
%TO.P,J1,6,Pin_6*%
%TO.N,Net-(J1-Pin_6)*%
X128705000Y-60750000D03*
%TO.P,J1,7,Pin_7*%
%TO.N,Net-(J1-Pin_7)*%
X131245000Y-63290000D03*
%TO.P,J1,8,Pin_8*%
%TO.N,Net-(J1-Pin_8)*%
X131245000Y-60750000D03*
%TO.P,J1,9,Pin_9*%
%TO.N,Net-(J1-Pin_9)*%
X133785000Y-63290000D03*
%TO.P,J1,10,Pin_10*%
%TO.N,Net-(J1-Pin_10)*%
X133785000Y-60750000D03*
%TO.P,J1,11,Pin_11*%
%TO.N,Net-(J1-Pin_11)*%
X136325000Y-63290000D03*
%TO.P,J1,12,Pin_12*%
%TO.N,Net-(J1-Pin_12)*%
X136325000Y-60750000D03*
%TO.P,J1,13,Pin_13*%
%TO.N,Net-(J1-Pin_13)*%
X138865000Y-63290000D03*
%TO.P,J1,14,Pin_14*%
%TO.N,Net-(J1-Pin_14)*%
X138865000Y-60750000D03*
%TO.P,J1,15,Pin_15*%
%TO.N,Net-(J1-Pin_15)*%
X141405000Y-63290000D03*
%TO.P,J1,16,Pin_16*%
%TO.N,unconnected-(J1-Pin_16-Pad16)*%
X141405000Y-60750000D03*
%TD*%
D10*
%TO.P,SW4,A,A*%
%TO.N,Net-(J1-Pin_13)*%
X146000000Y-55000000D03*
D11*
%TO.P,SW4,B,B*%
%TO.N,Net-(J1-Pin_14)*%
X146000000Y-60000000D03*
%TO.P,SW4,C,C*%
%TO.N,Net-(J1-Pin_11)*%
X146000000Y-57500000D03*
D12*
%TO.P,SW4,MP*%
%TO.N,N/C*%
X153500000Y-51900000D03*
X153500000Y-63100000D03*
D11*
%TO.P,SW4,S1,S1*%
%TO.N,Net-(J1-Pin_15)*%
X160500000Y-60000000D03*
%TO.P,SW4,S2,S2*%
%TO.N,Net-(J1-Pin_12)*%
X160500000Y-55000000D03*
%TD*%
D17*
%TO.N,Net-(J1-Pin_1)*%
X108500000Y-68000000D03*
%TO.N,Net-(J1-Pin_4)*%
X124500000Y-73000000D03*
%TO.N,Net-(J1-Pin_6)*%
X127500000Y-91750000D03*
%TO.N,Net-(J1-Pin_8)*%
X153250000Y-92000000D03*
X140250000Y-92000000D03*
%TO.N,Net-(J1-Pin_10)*%
X154750000Y-70750000D03*
X146750000Y-67750000D03*
%TO.N,Net-(J1-Pin_11)*%
X143750000Y-63000000D03*
%TO.N,Net-(J1-Pin_12)*%
X143750000Y-53000000D03*
%TO.N,Net-(J1-Pin_15)*%
X142000000Y-68750000D03*
X145750000Y-64500000D03*
%TD*%
D18*
%TO.N,Net-(D1-A)*%
X136290000Y-99250000D02*
X138000000Y-97540000D01*
X138000000Y-97540000D02*
X138000000Y-76750000D01*
X138000000Y-76750000D02*
X133750000Y-72500000D01*
%TO.N,Net-(D2-A)*%
X136750000Y-80500000D02*
X136750000Y-90750000D01*
X134925000Y-94675000D02*
X134900000Y-94700000D01*
X134900000Y-94700000D02*
X134925000Y-94725000D01*
X133750000Y-77500000D02*
X136750000Y-80500000D01*
X134925000Y-92575000D02*
X134925000Y-94675000D01*
X136750000Y-90750000D02*
X134925000Y-92575000D01*
X134925000Y-94725000D02*
X134925000Y-98075000D01*
X134925000Y-98075000D02*
X133750000Y-99250000D01*
%TO.N,Net-(D3-A)*%
X132500000Y-92500000D02*
X132500000Y-97960000D01*
X135500000Y-84250000D02*
X135500000Y-89500000D01*
X132500000Y-97960000D02*
X131210000Y-99250000D01*
X135500000Y-89500000D02*
X132500000Y-92500000D01*
X133750000Y-82500000D02*
X135500000Y-84250000D01*
%TO.N,Net-(D4-A)*%
X132750000Y-89250000D02*
X129950000Y-92050000D01*
X133765000Y-87500000D02*
X132750000Y-88515000D01*
X132750000Y-88515000D02*
X132750000Y-89250000D01*
X128670000Y-99250000D02*
X129950000Y-97970000D01*
X129950000Y-97970000D02*
X129950000Y-92050000D01*
D19*
%TO.N,Net-(J1-Pin_1)*%
X123625000Y-64125000D02*
X119750000Y-68000000D01*
X119750000Y-68000000D02*
X108500000Y-68000000D01*
X123625000Y-63290000D02*
X123625000Y-64125000D01*
%TO.N,Net-(J1-Pin_3)*%
X126165000Y-84335000D02*
X117500000Y-93000000D01*
X117500000Y-93000000D02*
X107750000Y-93000000D01*
X107750000Y-93000000D02*
X107750000Y-81250000D01*
X126165000Y-63290000D02*
X126165000Y-84335000D01*
X106500000Y-80000000D02*
X104000000Y-80000000D01*
X107750000Y-81250000D02*
X106500000Y-80000000D01*
%TO.N,Net-(J1-Pin_4)*%
X120000000Y-77500000D02*
X124500000Y-73000000D01*
X118500000Y-77500000D02*
X120000000Y-77500000D01*
%TO.N,Net-(J1-Pin_5)*%
X127250000Y-85750000D02*
X127250000Y-64745000D01*
X110500000Y-102500000D02*
X127250000Y-85750000D01*
X104000000Y-102500000D02*
X110500000Y-102500000D01*
X127250000Y-64745000D02*
X128705000Y-63290000D01*
%TO.N,Net-(J1-Pin_6)*%
X118500000Y-100000000D02*
X126750000Y-91750000D01*
X126750000Y-91750000D02*
X127500000Y-91750000D01*
%TO.N,Net-(J1-Pin_7)*%
X131245000Y-66995000D02*
X133000000Y-68750000D01*
X139400000Y-71900000D02*
X139250000Y-71750000D01*
X146000000Y-102500000D02*
X142250000Y-102500000D01*
X131245000Y-63290000D02*
X131245000Y-66995000D01*
X139400000Y-99650000D02*
X139400000Y-71900000D01*
X142250000Y-102500000D02*
X139400000Y-99650000D01*
X133000000Y-68750000D02*
X136250000Y-68750000D01*
X136250000Y-68750000D02*
X139250000Y-71750000D01*
%TO.N,Net-(J1-Pin_8)*%
X153250000Y-92000000D02*
X140250000Y-92000000D01*
%TO.N,Net-(J1-Pin_9)*%
X133785000Y-66535000D02*
X134500000Y-67250000D01*
X137000000Y-67250000D02*
X134500000Y-67250000D01*
X133785000Y-63290000D02*
X133785000Y-66535000D01*
X142000000Y-72250000D02*
X137000000Y-67250000D01*
X142000000Y-78250000D02*
X142000000Y-72250000D01*
X143750000Y-80000000D02*
X142000000Y-78250000D01*
X146000000Y-80000000D02*
X143750000Y-80000000D01*
%TO.N,Net-(J1-Pin_10)*%
X151750000Y-67750000D02*
X146750000Y-67750000D01*
X154750000Y-70750000D02*
X151750000Y-67750000D01*
%TO.N,Net-(J1-Pin_11)*%
X136325000Y-63290000D02*
X136325000Y-65075000D01*
X140750000Y-66000000D02*
X137250000Y-66000000D01*
X143750000Y-63000000D02*
X140750000Y-66000000D01*
X136325000Y-65075000D02*
X137250000Y-66000000D01*
%TO.N,Net-(J1-Pin_12)*%
X160500000Y-55000000D02*
X159250000Y-53750000D01*
X145000000Y-51750000D02*
X143750000Y-53000000D01*
X159250000Y-53750000D02*
X150250000Y-53750000D01*
X148250000Y-51750000D02*
X145000000Y-51750000D01*
X150250000Y-53750000D02*
X148250000Y-51750000D01*
D20*
%TO.N,Net-(J1-Pin_14)*%
X138865000Y-58135000D02*
X139300000Y-57700000D01*
X157250000Y-68500000D02*
X155000000Y-66250000D01*
X150500000Y-66250000D02*
X149000000Y-64750000D01*
X146000000Y-105000000D02*
X147500000Y-105000000D01*
X157250000Y-98250000D02*
X157250000Y-77250000D01*
X143400000Y-57700000D02*
X143500000Y-57800000D01*
X144500000Y-60000000D02*
X143500000Y-59000000D01*
X143500000Y-59000000D02*
X143500000Y-57800000D01*
X157250000Y-77250000D02*
X153000000Y-77250000D01*
X147500000Y-105000000D02*
X152250000Y-100250000D01*
X102000000Y-105000000D02*
X104000000Y-105000000D01*
X101000000Y-104000000D02*
X102000000Y-105000000D01*
X140040000Y-54000000D02*
X140040000Y-52290000D01*
X104000000Y-82500000D02*
X101250000Y-85250000D01*
X101250000Y-85250000D02*
X101000000Y-85250000D01*
X117500000Y-51500000D02*
X139250000Y-51500000D01*
X138865000Y-60750000D02*
X138865000Y-58135000D01*
X143500000Y-55500000D02*
X142000000Y-54000000D01*
X153000000Y-77250000D02*
X147750000Y-82500000D01*
X142000000Y-54000000D02*
X140040000Y-54000000D01*
X147750000Y-82500000D02*
X146000000Y-82500000D01*
X117500000Y-51500000D02*
X111250000Y-57750000D01*
X157250000Y-77250000D02*
X157250000Y-68500000D01*
X149000000Y-64750000D02*
X149000000Y-63000000D01*
X139300000Y-57700000D02*
X143400000Y-57700000D01*
X140040000Y-52290000D02*
X139250000Y-51500000D01*
X149000000Y-63000000D02*
X146000000Y-60000000D01*
X101000000Y-85250000D02*
X101000000Y-63000000D01*
X143500000Y-57800000D02*
X143500000Y-55500000D01*
X155000000Y-66250000D02*
X150500000Y-66250000D01*
X146000000Y-60000000D02*
X144500000Y-60000000D01*
X111250000Y-57750000D02*
X111250000Y-60000000D01*
X101000000Y-85250000D02*
X101000000Y-104000000D01*
X152250000Y-100250000D02*
X155250000Y-100250000D01*
X111250000Y-60000000D02*
X104000000Y-60000000D01*
X155250000Y-100250000D02*
X157250000Y-98250000D01*
X101000000Y-63000000D02*
X104000000Y-60000000D01*
%TO.N,Net-(J1-Pin_15)*%
X145750000Y-65000000D02*
X142000000Y-68750000D01*
X145750000Y-64500000D02*
X145750000Y-65000000D01*
%TD*%
M02*
