M48
; DRILL file {KiCad 7.0.5} date Thu Jul 13 08:53:03 2023
; FORMAT={-:-/ absolute / metric / decimal}
; #@! TF.CreationDate,2023-07-13T08:53:03+02:00
; #@! TF.GenerationSoftware,Kicad,Pcbnew,7.0.5
; #@! TF.FileFunction,Plated,1,2,PTH
FMAT,2
METRIC
; #@! TA.AperFunction,Plated,PTH,ViaDrill
T1C0.400
; #@! TA.AperFunction,Plated,PTH,ComponentDrill
T2C0.900
; #@! TA.AperFunction,Plated,PTH,ComponentDrill
T3C1.000
; #@! TA.AperFunction,Plated,PTH,ComponentDrill
T4C1.500
%
G90
G05
T1
X108.5Y-68.0
X124.5Y-73.0
X127.5Y-91.75
X140.25Y-92.0
X142.0Y-68.75
X143.75Y-53.0
X143.75Y-63.0
X145.75Y-64.5
X146.75Y-67.75
X153.25Y-92.0
X154.75Y-70.75
T2
X131.21Y-72.5
X131.21Y-77.5
X131.21Y-82.5
X131.225Y-87.5
X133.75Y-72.5
X133.75Y-77.5
X133.75Y-82.5
X133.765Y-87.5
T3
X104.0Y-55.0
X104.0Y-57.5
X104.0Y-60.0
X104.0Y-77.5
X104.0Y-80.0
X104.0Y-82.5
X104.0Y-100.0
X104.0Y-102.5
X104.0Y-105.0
X118.5Y-55.0
X118.5Y-60.0
X118.5Y-77.5
X118.5Y-82.5
X118.5Y-100.0
X118.5Y-105.0
X123.625Y-60.75
X123.625Y-63.29
X126.165Y-60.75
X126.165Y-63.29
X128.67Y-96.71
X128.67Y-99.25
X128.705Y-60.75
X128.705Y-63.29
X131.21Y-96.71
X131.21Y-99.25
X131.245Y-60.75
X131.245Y-63.29
X133.75Y-96.71
X133.75Y-99.25
X133.785Y-60.75
X133.785Y-63.29
X136.29Y-96.71
X136.29Y-99.25
X136.325Y-60.75
X136.325Y-63.29
X138.865Y-60.75
X138.865Y-63.29
X141.405Y-60.75
X141.405Y-63.29
X146.0Y-55.0
X146.0Y-57.5
X146.0Y-60.0
X146.0Y-77.5
X146.0Y-80.0
X146.0Y-82.5
X146.0Y-100.0
X146.0Y-102.5
X146.0Y-105.0
X160.5Y-55.0
X160.5Y-60.0
X160.5Y-77.5
X160.5Y-82.5
X160.5Y-100.0
X160.5Y-105.0
T4
X110.85Y-51.9G85X112.15Y-51.9
G05
X110.85Y-63.1G85X112.15Y-63.1
G05
X110.85Y-74.4G85X112.15Y-74.4
G05
X110.85Y-85.6G85X112.15Y-85.6
G05
X110.85Y-96.9G85X112.15Y-96.9
G05
X110.85Y-108.1G85X112.15Y-108.1
G05
X152.85Y-51.9G85X154.15Y-51.9
G05
X152.85Y-63.1G85X154.15Y-63.1
G05
X152.85Y-74.4G85X154.15Y-74.4
G05
X152.85Y-85.6G85X154.15Y-85.6
G05
X152.85Y-96.9G85X154.15Y-96.9
G05
X152.85Y-108.1G85X154.15Y-108.1
G05
T0
M30
