<?xml version="1.0" encoding="UTF-8" standalone="no"?>
<!-- Created with Inkscape (http://www.inkscape.org/) -->

<svg
   width="290mm"
   height="58mm"
   viewBox="0 0 290 58"
   version="1.1"
   id="svg308"
   xml:space="preserve"
   inkscape:version="1.2.2 (b0a8486541, 2022-12-01)"
   sodipodi:docname="Aufkleber.svg"
   inkscape:export-filename="Aufkleber.pdf"
   inkscape:export-xdpi="96"
   inkscape:export-ydpi="96"
   xmlns:inkscape="http://www.inkscape.org/namespaces/inkscape"
   xmlns:sodipodi="http://sodipodi.sourceforge.net/DTD/sodipodi-0.dtd"
   xmlns="http://www.w3.org/2000/svg"
   xmlns:svg="http://www.w3.org/2000/svg"><sodipodi:namedview
     id="namedview310"
     pagecolor="#505050"
     bordercolor="#ffffff"
     borderopacity="1"
     inkscape:showpageshadow="0"
     inkscape:pageopacity="0"
     inkscape:pagecheckerboard="1"
     inkscape:deskcolor="#505050"
     inkscape:document-units="mm"
     showgrid="false"
     showguides="false"
     inkscape:zoom="0.72880595"
     inkscape:cx="752.60088"
     inkscape:cy="157.10629"
     inkscape:window-width="1852"
     inkscape:window-height="869"
     inkscape:window-x="0"
     inkscape:window-y="0"
     inkscape:window-maximized="1"
     inkscape:current-layer="layer1" /><defs
     id="defs305" /><g
     inkscape:label="Ebene 1"
     inkscape:groupmode="layer"
     id="layer1"><path
       d="m 16.373344,27.525541 h -4.300283 v 1.100417 l 0.05029,9.600382 h 1.850294 v -2.949915 h 2.449988 c 1.149956,0 1.950104,-0.400854 2.499555,-1.000589 0.499906,-0.499132 0.650027,-0.999041 0.650027,-2.849315 0,-1.850277 -0.150121,-2.350183 -0.650027,-2.900391 -0.549451,-0.550206 -1.399909,-1.000589 -2.549843,-1.000589 z m -0.550218,6.251163 c -1.750439,0 -1.850271,-1.251316 -1.850271,-2.350183 0,-1.100415 0.09983,-2.350183 1.850271,-2.350183 1.799984,0 1.850295,1.14994 1.899816,2.350183 0,1.14994 -0.09983,2.350183 -1.899816,2.350183 z m 9.700211,-6.251163 h -4.349804 v 7.650283 h 1.899793 l -0.04952,-4.551012 c 0,-1.098867 0.950291,-1.549248 1.850271,-1.549248 0.499907,0 0.800171,0.09983 1.249789,0.349006 l 1.350366,-1.299295 C 26.923246,27.77627 26.273197,27.525541 25.523337,27.525541 Z m 3.400302,1.000589 c -0.700338,0.599734 -0.999813,1.249768 -0.999813,2.900391 v 3.849904 h 3.849898 c 1.499742,0 2.350201,-0.499909 2.850107,-0.951062 0.74986,-0.650034 1.050101,-1.300068 1.050101,-2.898842 v -0.04953 l 0.04952,0.04953 v -3.90098 h -3.699777 l 0.04954,0.04953 c -0.09983,-0.04953 -0.199665,-0.04953 -0.300264,-0.04953 -1.449408,0 -2.299101,0.500682 -2.849318,1.000589 z m 2.849318,5.250574 c -0.650027,0 -1.200244,-0.250729 -1.499719,-0.550209 -0.350553,-0.400854 -0.450385,-0.701107 -0.450385,-1.799974 0,-1.100415 0.09983,-1.401443 0.450385,-1.799977 0.249953,-0.350552 0.849692,-0.550206 1.499719,-0.550206 0.650027,0 1.249766,0.199654 1.55003,0.550206 0.350553,0.399307 0.450385,0.699562 0.450385,1.799977 0,1.098867 -0.09983,1.399893 -0.450385,1.799974 -0.299497,0.29948 -0.900003,0.550209 -1.55003,0.550209 z M 41.973841,27.525541 H 37.473916 V 38.22634 h 1.899793 v -2.949915 h 2.549844 c 1.099645,-0.04953 1.900582,-0.450382 2.400489,-1.000589 0.499906,-0.499132 0.650027,-0.999041 0.650027,-2.849315 0,-1.850277 -0.150121,-2.350183 -0.650027,-2.900391 -0.499907,-0.550206 -1.300077,-0.950287 -2.350201,-1.000589 z m -0.750627,6.251163 c -1.749672,0 -1.850271,-1.251316 -1.850271,-2.350183 0,-1.100415 0.09983,-2.350183 1.850271,-2.350183 1.750462,0 1.850272,1.14994 1.850272,2.350183 0,1.14994 -0.04952,2.350183 -1.850272,2.350183 z m 8.950351,-6.251163 h -3.899419 v 3.90098 -0.0503 0.04953 c 0,3.100043 2.249579,3.849902 4.199683,3.849902 1.249766,0 2.450011,-0.349005 3.349992,-1.20024 L 52.473455,33.1259 c -0.550217,0.448831 -1.350365,0.69956 -2.049937,0.69956 -1.300077,0 -2.250345,-0.599734 -2.250345,-1.850276 h 5.85029 v -1.251316 c 0,-1.948555 -1.799194,-3.198323 -3.849898,-3.198323 z m -1.999626,3.19987 c 0.04952,-1.148393 0.850459,-1.749675 1.999626,-1.749675 1.099646,0 1.900583,0.600508 1.950104,1.749675 z m 18.050056,-3.19987 h -3.900209 v 3.90098 l 0.04952,-0.04953 v 0.04953 c 0,3.100042 2.200058,3.849904 4.150162,3.849904 1.249766,0 2.450011,-0.349008 3.400302,-1.200242 L 68.52386,33.12667 c -0.550194,0.448833 -1.300054,0.69956 -2.049914,0.69956 -1.300077,0 -2.249579,-0.599735 -2.249579,-1.850277 h 5.85029 v -1.251315 c 0,-1.949329 -1.80075,-3.199097 -3.850664,-3.199097 z m -1.999626,3.19987 c 0.04952,-1.148393 0.899981,-1.749675 1.999626,-1.749675 1.100412,0 1.900583,0.600508 1.950104,1.749675 z m 19.299813,-3.19987 h -2.599356 v -2.949915 h -1.900582 v 10.600198 h 1.900582 v -4.499165 c 0,-1.000587 0.799382,-1.600321 1.85027,-1.600321 1.050888,0 1.850276,0.599734 1.850276,1.600321 v 4.499165 h 1.899803 v -4.999072 c -6.77e-4,-1.650622 -1.550024,-2.55061 -3.000993,-2.651211 z m 8.300317,0 h -3.900978 l 0.05107,3.90098 v -0.0503 0.04953 c 0,3.100043 2.199282,3.849902 4.148611,3.849902 1.249768,0 2.450008,-0.349005 3.401071,-1.20024 L 94.124379,33.1259 c -0.550208,0.448831 -1.301617,0.69956 -2.050703,0.69956 -1.300068,0 -2.248808,-0.599734 -2.248808,-1.850276 H 95.6744 v -1.251316 c 0,-1.948555 -1.799976,-3.198323 -3.849904,-3.198323 z m -1.998855,3.19987 c 0.04953,-1.148393 0.899214,-1.749675 1.999628,-1.749675 1.100415,0 1.899803,0.600508 1.950102,1.749675 z m 10.748776,-3.19987 c -1.399893,0 -2.450008,0.300255 -3.149568,1.100417 l 1.449422,0.950286 c 0.350552,-0.45038 0.800935,-0.600508 1.799976,-0.600508 1.35114,0 1.90135,0.249954 1.90135,0.95029 v 0.799385 h -2.600912 c -1.999628,0 -3.049743,1.050115 -3.049743,2.250357 0,1.249769 1.149941,2.200829 3.049743,2.300657 h 4.500712 v -5.250574 c 0,-1.850276 -1.60032,-2.50031 -3.90098,-2.50031 z m -1.8495,5.3504 c 0,-0.550207 0.499906,-0.899214 1.60032,-0.899214 h 2.25036 v 0.548661 c 0,1.20024 -0.49991,1.301615 -2.10101,1.301615 -1.249764,-6.76e-4 -1.74967,-0.451154 -1.74967,-0.951062 z m 14.54993,-8.300315 h -1.85028 v 2.949915 h -2.45 c -1.14995,0 -1.95011,0.450383 -2.49954,0.999815 -0.54943,0.549433 -0.69956,1.050115 -0.65004,2.900391 0,1.850274 0.14936,2.350183 0.65004,2.849316 0.55021,0.599732 1.34959,1.000586 2.49954,1.000586 h 4.30028 v -0.09983 h 0.0495 z m -5.59958,6.850895 c 0,-1.200243 0.0998,-2.350183 1.8998,-2.350183 1.75045,0 1.85028,1.249768 1.85028,2.350183 0,1.098867 -0.0998,2.350183 -1.85028,2.350183 -1.79997,0 -1.8998,-1.200243 -1.8998,-2.350183 z M 76.124637,27.525541 H 71.62469 v 1.100417 h 0.04952 v 6.549866 h 1.900583 l -0.05031,-4.551012 c 0,-1.098867 0.950291,-1.549248 1.850295,-1.549248 0.499906,0 0.800148,0.09983 1.249766,0.349006 l 1.350365,-1.299295 a 3.8793105,3.8793105 0 0 0 -1.850272,-0.599734 z m -20.80033,7.750884 h 1.899816 V 24.575626 h -1.950105 z m 3.549656,0 h 1.900582 V 24.575626 h -1.950893 z m 73.600877,-18.800689 3.4003,17.450319 11.60079,7.549682 -15.00109,-3.349223 -15.04906,3.349223 11.60001,-7.549682 z"
       id="path586"
       style="clip-rule:evenodd;fill:#000000;fill-opacity:1;fill-rule:evenodd;stroke-width:0.773849;stroke:none" /><path
       fill="#fffbcd"
       d="m 132.47484,24.075717 1.65062,10.6002 5.70096,3.849905 -7.35158,-2.400485 -7.35002,2.400485 5.70095,-3.849905 z"
       id="path588"
       style="clip-rule:evenodd;fill:#000000;fill-opacity:1;fill-rule:evenodd;stroke-width:0.773849;stroke:none" /><path
       d="m 139.02548,27.275588 c 4.00081,0.700336 6.45082,1.650622 6.35099,2.901164 -0.10137,2.049155 -6.95072,3.548876 -15.29979,3.349223 -3.20142,-0.04953 -6.15133,-0.349006 -8.55027,-0.849688 2.39894,1.30007 6.89965,2.250357 12.09915,2.350183 7.85071,0.199653 14.30075,-1.550795 14.45087,-3.851452 0.0991,-1.799201 -3.15034,-3.349222 -9.05095,-3.89943 z"
       fill="#cc2229"
       id="path590"
       style="clip-rule:evenodd;fill:#000000;fill-opacity:1;fill-rule:evenodd;stroke-width:0.773849;stroke:none" /><path
       d="m 138.07597,27.725968 c 2.14898,0.300255 3.55042,0.749862 3.55042,1.249768 0,0.899988 -4.0008,1.59955 -8.95035,1.59955 -1.8998,0 -3.65025,-0.09983 -5.10122,-0.299482 1.45097,0.550209 4.15016,0.899214 7.25021,0.899214 4.65083,0 8.40014,-0.799386 8.40014,-1.799974 0,-0.749086 -2.09946,-1.348821 -5.1492,-1.649076 z"
       fill="#cc2229"
       id="path592"
       style="clip-rule:evenodd;fill:#000000;fill-opacity:1;fill-rule:evenodd;stroke-width:0.773849;stroke:none" /><path
       d="m 126.0751,27.275588 c -3.04974,0.350554 -5.20104,0.950289 -5.45022,1.75045 -0.45039,1.399894 4.60054,2.749488 11.3013,3.100043 2.54984,0.149352 4.99985,0.09983 6.99948,-0.04953 -2.20083,0.69956 -6.04996,1.100414 -10.2009,0.849687 -6.29991,-0.299481 -10.94997,-1.850276 -10.45007,-3.399524 0.35056,-1.150716 3.55043,-2.001177 7.80041,-2.25113 z"
       fill="#cc2229"
       id="path594"
       style="clip-rule:evenodd;fill:#000000;fill-opacity:1;fill-rule:evenodd;stroke-width:0.773849;stroke:none" /><path
       d="m 107.22489,36.826446 h 1.55079 v 0.550206 h -1.55079 z m 4.0008,1.350368 v -0.550206 h 1.79998 v -0.24918 h -1.79998 V 36.82722 h 2.09946 v -0.250727 h -2.69996 v 1.849501 h 2.69996 v -0.24918 z m -5.85108,-0.800162 v -0.550206 l -0.29948,-0.250729 h -2.101 l -0.29948,0.250729 v 1.598774 h 0.60051 v -0.799388 h 1.49972 v 0.799388 h 0.60051 v -1.048568 z m -0.59973,-0.550206 v 0.550206 h -1.49972 v -0.550206 z m -3.34922,0.550206 v -0.800935 h -0.60051 v 1.600324 h -0.49991 v -0.550209 h -0.550206 v 0.550209 H 99.275128 V 36.575717 H 98.72492 v 1.600324 l 0.250726,0.249179 h 2.149754 l 0.30103,-0.249179 v -0.799389 z m -5.051697,0.800162 V 36.82722 h 1.050889 v -0.250727 h -2.700738 v 0.250727 h 1.049341 v 1.598774 h 0.600508 z m -5.049371,0 v -0.550206 h 1.850274 v -0.24918 H 91.324592 V 36.82722 h 2.151303 v -0.250727 h -2.701511 v 1.849501 h 0.550208 z m -1.850276,-0.800162 v -0.550206 l -0.301029,-0.250729 h -2.099453 l -0.29948,0.250729 v 1.349595 l 0.29948,0.249179 h 2.099453 l 0.301029,-0.249179 z m -0.599734,-0.550206 v 1.349595 h -1.500496 v -1.349595 z m -3.349223,1.350368 v -0.550206 l -0.301028,-0.24918 H 83.374057 V 36.82722 h 2.151302 v -0.250727 h -2.452331 l -0.299479,0.250727 v 0.550208 l 0.299479,0.24918 h 1.851823 v 0.550206 h -2.151302 v 0.24918 h 2.450782 z m 23.850061,-0.800162 v -0.550206 l -0.30103,-0.250729 h -2.40048 v 1.849503 h 0.5502 v -0.799388 h 0.90077 l 0.44883,0.550209 0.2012,0.249179 h 0.60051 l -0.2012,-0.249179 -0.44883,-0.550209 h 0.349 z"
       id="path596"
       style="clip-rule:evenodd;fill:#000000;fill-opacity:1;fill-rule:evenodd;stroke-width:0.773849;stroke:none" /><g
       id="g951"
       transform="translate(54.439911,-84.223104)"
       style="fill:#000000;fill-opacity:1"><path
         d="m 194.97849,120.59712 c 0.11595,0.16861 0.22931,0.29649 0.37872,0.43631 l 0.30531,0.22333 c 0.57819,0.338 1.18258,0.52191 1.8526,0.54577 l 8.26433,0.0122 0.41711,-0.11361 a 2.6445351,2.6445351 0 0 0 0.51775,-0.32269 l 0.27029,-0.29078 a 2.4422067,2.4422067 0 0 0 0.2773,-0.54214 l 0.0482,-0.21063 0.0174,-0.22385 -0.0195,-0.23294 -0.0625,-0.23553 -0.0916,-0.19403 -3.51014,-5.92874 c -0.40932,-0.76444 -0.0407,-1.53173 0.23242,-2.20564 -0.63837,-0.002 -1.52395,-0.0791 -2.01031,-0.78752 l -3.38018,-5.70307 -0.12581,-0.17353 -0.17769,-0.16835 -0.19662,-0.12918 -0.20596,-0.0918 -0.41555,-0.0859 a 2.5363672,2.5363672 0 0 0 -0.59816,0.0589 l -0.37224,0.14241 a 2.5187284,2.5187284 0 0 0 -0.49985,0.37093 l -0.24643,0.33851 -3.86784,7.31313 c -0.16757,0.39532 -0.26303,0.773 -0.31698,1.19919 a 5.0517235,5.0517235 0 0 0 -0.0127,0.55381 c 0.0259,0.27314 0.0734,0.49389 0.16835,0.75276 z m 11.68654,-9.65962 h 2.8466 l 0.23112,-0.0306 0.25395,-0.1009 0.2249,-0.15668 0.18936,-0.21607 0.1367,-0.27808 0.0521,-0.32528 -0.0482,-0.33228 -0.11906,-0.26225 -1.39166,-2.27594 -0.145,-0.19688 -0.2153,-0.19299 -0.276,-0.1437 -0.32554,-0.0604 -0.33228,0.047 -0.29027,0.13955 -0.22775,0.1974 -0.15459,0.20519 -1.41656,2.28267 -0.11076,0.25162 -0.0413,0.31905 0.0496,0.31024 0.12814,0.27678 0.19325,0.23034 0.24461,0.17353 0.283,0.10817 z m 14.49215,9.65962 3.36047,-5.69243 0.11854,-0.37845 c 0.13385,-0.78338 -0.002,-1.55871 -0.34914,-2.26997 l -3.90468,-7.33907 -0.29649,-0.31517 c -0.17587,-0.1297 -0.32839,-0.21867 -0.52683,-0.3066 l -0.38442,-0.10273 a 2.4136733,2.4136733 0 0 0 -0.6101,0.0109 l -0.2083,0.0576 -0.20622,0.0916 -0.19662,0.12918 -0.17742,0.16809 -0.12607,0.17379 -3.42324,5.76999 c -0.76288,0.73928 -1.24587,0.68299 -1.9657,0.7206 0.45654,0.58624 0.66665,1.56675 0.19144,2.27879 l -3.47097,5.85455 -0.0918,0.19351 -0.0628,0.23605 -0.0197,0.23398 0.0176,0.22333 0.12062,0.4057 c 0.0983,0.18988 0.19455,0.33436 0.33229,0.49908 l 0.30038,0.26302 c 0.18936,0.11855 0.3507,0.19507 0.56237,0.26796 l 0.41451,0.0584 8.22309,-0.0319 c 0.36315,-0.0329 0.6874,-0.10584 1.03291,-0.22231 l 0.33748,-0.14085 c 0.36471,-0.18547 0.6337,-0.37534 0.90425,-0.68558 z M 204.71386,91.984783 a 2.5348109,2.5348109 0 0 0 -0.56938,0.10324 l -0.34759,0.148893 c -0.49207,0.273143 -0.87545,0.604391 -1.22797,1.043028 l -0.18625,0.272625 -4.22425,7.102241 -0.11491,0.41763 c -0.0187,0.21633 -0.0148,0.3935 0.0137,0.60958 l 0.11258,0.38079 a 2.4336467,2.4336467 0 0 0 0.32477,0.51542 l 0.15641,0.14837 0.18391,0.12944 0.21115,0.1022 0.23423,0.0661 0.21349,0.0197 6.72067,-0.0309 c 1.00204,-0.006 1.60955,0.80672 1.93638,1.43991 0.25162,-0.6625 0.93616,-1.38232 1.79787,-1.4093 h 6.54507 l 0.21374,-0.0197 0.23501,-0.0667 0.21115,-0.10298 0.18391,-0.13073 0.28637,-0.31361 a 2.5550437,2.5550437 0 0 0 0.25421,-0.54421 l 0.0674,-0.39324 a 2.5602316,2.5602316 0 0 0 -0.0643,-0.61918 l -0.16627,-0.38417 -4.3179,-7.056067 -0.21218,-0.273402 c -0.42567,-0.4721 -0.87961,-0.82384 -1.47544,-1.052108 a 2.5379236,2.5379236 0 0 0 -0.56885,-0.10298 h -6.42678 z"
         fill="#a6a8aa"
         id="path201"
         style="clip-rule:evenodd;fill:#000000;fill-opacity:1;fill-rule:evenodd;stroke:none;stroke-width:0.259395" /><path
         d="m 197.53561,121.03835 8.14216,0.0122 c 0.12399,-0.034 0.22827,-0.0558 0.33929,-0.11803 a 1.9065555,1.9065555 0 0 0 0.18209,-0.12217 c 0.25473,-0.27419 0.4319,-0.5066 0.32632,-0.90478 l -3.55708,-6.02653 -0.17613,-0.42592 a 3.2922451,3.2922451 0 0 1 -0.096,-0.63812 c 0.009,-0.29156 0.042,-0.55821 0.1214,-0.84018 -0.42178,-0.0895 -0.77274,-0.2638 -1.11929,-0.51619 l -0.32165,-0.31335 -0.14552,-0.19118 -3.44841,-5.79852 -0.16445,-0.13048 a 0.95898442,0.95898442 0 0 0 -0.43086,-0.082 c -0.22697,0.0182 -0.4114,0.082 -0.59868,0.21607 -0.12814,0.0991 -0.19195,0.19559 -0.29104,0.33177 l -3.83983,7.26696 c -0.18028,0.45913 -0.29571,0.98181 -0.22853,1.47544 0.02,0.11854 0.0456,0.23449 0.0853,0.34759 l 3.32493,5.62706 a 1.5153873,1.5153873 0 0 0 0.49908,0.43967 c 0.45057,0.23917 0.88713,0.36471 1.39684,0.39065 z m 5.68517,-27.348042 -0.19377,0.273921 -4.15914,6.992781 c -0.034,0.12399 -0.0687,0.22489 -0.0713,0.35252 5.2e-4,0.0724 0.003,0.14578 0.0119,0.21841 0.1061,0.35978 0.21556,0.63033 0.61192,0.74239 l 6.80938,-0.021 0.49337,0.0485 0.46588,0.14371 c 0.36108,0.17224 0.66976,0.37249 0.94523,0.66664 0.31724,-0.33021 0.68507,-0.54499 1.11022,-0.70685 a 3.3749922,3.3749922 0 0 1 0.67287,-0.12114 l 6.6496,-0.01 0.1961,-0.075 c 0.11854,-0.0838 0.22282,-0.19973 0.29026,-0.32865 0.10039,-0.20596 0.1393,-0.39584 0.11906,-0.62592 -0.0192,-0.16109 -0.0703,-0.26485 -0.1367,-0.41893 l -4.26783,-6.973321 -0.21997,-0.272365 c -0.33799,-0.35174 -0.76806,-0.706853 -1.25806,-0.804645 a 2.1394924,2.1394924 0 0 0 -0.18028,-0.02283 l -6.39902,0.0029 c -0.049,0.0052 -0.0978,0.01193 -0.14579,0.01971 -0.53176,0.10739 -0.99996,0.517494 -1.34392,0.919038 z m 16.08354,11.328572 c -0.16264,-0.0765 -0.34603,-0.0825 -0.52138,-0.0711 -0.21997,0.0215 -0.36471,0.11803 -0.49337,0.29597 l -3.46241,5.8351 c -0.41996,0.38909 -0.85678,0.7481 -1.42875,0.88298 0.0786,0.33981 0.0957,0.64123 0.0718,0.98934 l -0.0872,0.435 a 3.104443,3.104443 0 0 1 -0.27418,0.59687 l -3.49873,5.92251 -0.0366,0.20778 c 0.0117,0.145 0.0568,0.29493 0.13229,0.42048 0.0379,0.0594 0.0781,0.11803 0.12269,0.17224 l 0.20882,0.1808 c 0.0936,0.0542 0.1865,0.0988 0.28715,0.13774 l 0.28274,0.0394 8.15668,-0.034 c 0.62022,-0.0703 1.26041,-0.28014 1.68763,-0.75587 l 3.36306,-5.68232 0.0851,-0.30946 c 0.0516,-0.47988 -0.003,-0.90373 -0.15901,-1.35923 -0.0425,-0.11128 -0.0882,-0.21867 -0.13826,-0.32606 l -3.84683,-7.23142 c -0.0892,-0.0947 -0.15797,-0.17717 -0.26536,-0.24617 a 2.3848804,2.3848804 0 0 0 -0.18599,-0.10064 z m -12.59416,5.15444 2.83857,-0.0117 c 0.21944,-0.0872 0.297,-0.21037 0.26302,-0.44668 l -0.0553,-0.12114 -1.42875,-2.3151 c -0.0947,-0.0851 -0.13981,-0.11647 -0.26536,-0.13981 -0.18573,0.0262 -0.24798,0.1022 -0.35693,0.2472 l -1.41474,2.3094 c -0.0324,0.25187 0.0685,0.37534 0.29805,0.46328 z"
         fill="#e6e6e7"
         id="path203"
         style="clip-rule:evenodd;fill:#000000;fill-opacity:1;fill-rule:evenodd;stroke:none;stroke-width:0.259395" /><path
         d="m 205.25522,112.03526 5.97672,0.008 c 0.22801,0.0472 0.49493,0.10869 0.66016,0.28664 0.14293,0.20881 0.0457,0.54654 -0.0213,0.76599 l -2.99835,5.03097 c -0.1865,0.24332 -0.43578,0.53098 -0.75665,0.58105 -0.36964,0.0288 -0.66976,-0.3603 -0.85445,-0.6267 l -2.94725,-4.97261 c -0.0638,-0.23683 -0.0962,-0.47002 0.0101,-0.69751 0.19973,-0.30505 0.5979,-0.34889 0.93097,-0.37535 z m 4.88259,-8.22309 5.97673,0.008 c 0.22749,0.0472 0.49493,0.10869 0.65964,0.28664 0.14293,0.20881 0.0462,0.54628 -0.0207,0.76599 l -2.99887,5.03123 c -0.18702,0.24383 -0.43474,0.52995 -0.75588,0.58079 -0.37145,0.0277 -0.66872,-0.35771 -0.8547,-0.6267 l -2.94751,-4.97287 c -0.0638,-0.23683 -0.0962,-0.47002 0.0101,-0.69751 0.20026,-0.30479 0.59843,-0.34863 0.93123,-0.37509 z m -9.81629,0 5.9762,-0.0197 c 0.2594,0.054 0.57119,0.13047 0.73695,0.35641 0.11698,0.221 0.0529,0.49311 -0.0158,0.7206 l -3.08213,5.03434 c -0.18703,0.24383 -0.43475,0.52995 -0.75562,0.58079 -0.37145,0.0277 -0.66898,-0.35771 -0.85497,-0.6267 l -2.94725,-4.97261 c -0.0635,-0.23735 -0.0962,-0.47054 0.0104,-0.69803 0.19947,-0.30505 0.59946,-0.34863 0.93227,-0.37509 z"
         fill="#ffffff"
         id="path205"
         style="clip-rule:evenodd;fill:#000000;fill-opacity:1;fill-rule:evenodd;stroke:none;stroke-width:0.259395" /><path
         d="m 218.5251,134.40318 a 5.6885389,5.6885389 0 0 0 0.36367,-0.0148 l 0.1808,-0.0249 c 0.0597,-0.0132 0.11258,-0.0272 0.16965,-0.0516 l 0.041,-0.0239 0.0329,-0.027 0.0272,-0.0314 0.0228,-0.0371 0.0192,-0.0446 0.0148,-0.0532 0.01,-0.0628 0.004,-0.0739 c -0.004,-0.13333 -0.005,-0.27911 -0.0755,-0.39714 a 0.13099463,0.13099463 0 0 0 -0.0612,-0.0425 c -0.14397,-0.0441 -0.30194,-0.0516 -0.45031,-0.0602 -0.34241,-0.0153 -0.68844,-0.0166 -1.03058,0.0132 -0.10091,0.0112 -0.20674,0.0223 -0.30246,0.0594 -0.0249,0.0122 -0.0314,0.0254 -0.0472,0.0501 l -0.0197,0.0488 -0.0187,0.07 -0.0158,0.0897 -0.0192,0.23294 -0.005,0.29934 h -0.7494 c 0.002,-0.16161 0.003,-0.32217 0.0132,-0.48326 a 4.0725062,4.0725062 0 0 1 0.035,-0.28377 c 0.0161,-0.082 0.0361,-0.16109 0.0602,-0.24176 l 0.0568,-0.13981 0.0719,-0.12166 0.0425,-0.0537 0.0472,-0.0488 0.0511,-0.042 0.10428,-0.0612 a 1.6238146,1.6238146 0 0 1 0.18936,-0.0669 c 0.0786,-0.0187 0.15563,-0.034 0.23397,-0.0467 0.20622,-0.0277 0.40985,-0.041 0.61658,-0.0477 0.41556,-0.008 0.83552,-0.005 1.24536,0.0729 l 0.14033,0.035 c 0.0617,0.0197 0.11907,0.0415 0.17847,0.0695 l 0.10376,0.0654 0.0942,0.0877 0.0786,0.10376 0.0628,0.11906 c 0.0272,0.0675 0.049,0.13333 0.068,0.20311 0.0166,0.0781 0.0293,0.15408 0.0389,0.23242 0.007,0.0877 0.0112,0.17483 0.0127,0.26251 l -0.008,0.1808 a 2.1384549,2.1384549 0 0 1 -0.0436,0.24928 l -0.0506,0.15044 -0.07,0.13722 -0.0887,0.12114 -0.0511,0.0553 -0.11595,0.0957 c -0.0589,0.0376 -0.11492,0.07 -0.17847,0.0983 a 1.7379485,1.7379485 0 0 1 -0.21426,0.0674 c -0.13436,0.0293 -0.26743,0.0467 -0.40388,0.0584 -0.17172,0.0122 -0.34136,0.0148 -0.51282,0.0153 -0.21582,0.003 -0.43112,0.008 -0.64641,0.0309 a 1.2121542,1.2121542 0 0 0 -0.21634,0.042 l -0.0516,0.0223 -0.0389,0.0239 -0.0303,0.0265 -0.0239,0.0303 -0.0197,0.0366 -0.0153,0.0441 -0.01,0.0542 -0.004,0.14137 h 2.79369 v 0.7621 h -3.54308 v -0.84666 l 0.004,-0.11492 0.0122,-0.11257 0.0213,-0.10688 0.0303,-0.1009 0.0394,-0.0957 0.0495,-0.0887 0.0589,-0.0815 0.0675,-0.0724 0.0664,-0.0573 0.0734,-0.0516 0.0802,-0.0462 0.0866,-0.04 0.0926,-0.035 0.0988,-0.0298 c 0.10038,-0.0239 0.19921,-0.0436 0.30038,-0.0573 0.27444,-0.0335 0.55121,-0.0387 0.82617,-0.0387 z m 1.91823,1.09698 h 0.79349 v 0.90322 h -0.79349 z m 1.60306,-0.9455 c 0.001,0.24877 0.007,0.50116 0.0607,0.74525 0.0158,0.0597 0.0319,0.12217 0.0695,0.17327 0.10038,0.1048 0.27703,0.13567 0.41399,0.15953 0.0786,0.0106 0.15668,0.0187 0.23605,0.0249 0.30946,0.0161 0.62722,0.0143 0.93331,-0.042 0.0913,-0.0213 0.20155,-0.0451 0.27107,-0.11258 0.0467,-0.0602 0.0638,-0.14837 0.0802,-0.221 0.0495,-0.27522 0.0521,-0.5564 0.0506,-0.83448 -0.005,-0.24616 -0.0117,-0.50115 -0.076,-0.74109 -0.0148,-0.0441 -0.0293,-0.0967 -0.0654,-0.12918 -0.0713,-0.0506 -0.16731,-0.0685 -0.25084,-0.0846 -0.31568,-0.0516 -0.63992,-0.049 -0.95794,-0.0384 -0.1891,0.0101 -0.38806,0.0208 -0.56834,0.0815 -0.0288,0.0122 -0.0584,0.0228 -0.0781,0.0467 -0.0298,0.0472 -0.043,0.0999 -0.0568,0.15304 -0.0571,0.26848 -0.0612,0.54603 -0.062,0.81917 z m -0.75043,0.005 c 0.001,-0.17794 0.006,-0.35303 0.0161,-0.5315 0.009,-0.1105 0.0202,-0.221 0.0345,-0.33125 l 0.034,-0.18935 c 0.0197,-0.082 0.042,-0.15953 0.0703,-0.23969 l 0.0628,-0.13281 0.0379,-0.0589 0.0431,-0.0521 0.0511,-0.0488 0.0578,-0.0431 0.0628,-0.0384 0.14241,-0.0643 0.16524,-0.0506 a 4.2903983,4.2903983 0 0 1 0.28974,-0.0547 6.3577788,6.3577788 0 0 1 0.345,-0.0319 10.901087,10.901087 0 0 1 0.4018,-0.0106 c 0.17224,0.002 0.34344,0.006 0.5162,0.0187 0.10739,0.01 0.21426,0.0223 0.32217,0.0384 l 0.18443,0.0384 c 0.0814,0.0228 0.15693,0.0482 0.23553,0.0802 l 0.0674,0.0335 0.0617,0.0379 0.0568,0.0425 0.0501,0.0482 0.0436,0.0532 0.0384,0.0589 0.0643,0.13385 0.0516,0.15512 c 0.0223,0.0921 0.041,0.18287 0.0563,0.27548 l 0.0265,0.21426 c 0.0254,0.30894 0.0293,0.61399 0.0223,0.9237 -0.005,0.12374 -0.0127,0.24721 -0.0233,0.37094 a 4.1446181,4.1446181 0 0 1 -0.0633,0.40569 l -0.0472,0.16679 -0.0597,0.14501 -0.0355,0.0643 -0.04,0.0584 -0.0446,0.0532 -0.0516,0.0462 -0.0568,0.0415 -0.1297,0.07 -0.15045,0.0553 c -0.0898,0.0249 -0.17691,0.0441 -0.26744,0.0607 -0.10635,0.0161 -0.21218,0.0283 -0.3188,0.0384 l -0.24227,0.0137 a 8.4381291,8.4381291 0 0 1 -0.77715,-0.0137 5.7118845,5.7118845 0 0 1 -0.31957,-0.0384 3.1827803,3.1827803 0 0 1 -0.26796,-0.0607 l -0.15149,-0.0553 -0.13073,-0.0695 -0.0573,-0.041 -0.0516,-0.0462 -0.0462,-0.0521 -0.041,-0.0589 -0.0685,-0.13385 -0.0547,-0.15563 a 3.4618897,3.4618897 0 0 1 -0.0602,-0.27652 6.3442902,6.3442902 0 0 1 -0.0376,-0.33125 9.8528711,9.8528711 0 0 1 -0.0171,-0.53124 z"
         fill="#cc2229"
         id="path207"
         style="clip-rule:evenodd;fill:#000000;fill-opacity:1;fill-rule:evenodd;stroke:none;stroke-width:0.259395" /><path
         d="m 198.89562,134.2989 h 1.20463 v 0.54369 h -1.20463 z m 4.08003,1.67803 -0.0386,0.0506 -0.042,0.042 -0.047,0.035 -0.0521,0.0288 -0.0581,0.0228 -0.0643,0.0166 -0.0711,0.0106 -0.0796,0.004 h -1.91071 v -0.81372 h 1.78568 v -0.45083 h -1.08791 v -0.78415 h 1.08791 v -0.45083 h -1.78568 v -0.81373 h 1.91019 l 0.0659,0.004 0.0599,0.0112 0.0563,0.0187 0.0534,0.0265 0.0508,0.0345 0.0488,0.0425 0.0477,0.0527 0.0838,0.12607 0.0656,0.14578 0.0438,0.16004 0.022,0.17535 0.002,0.12866 c -7.8e-4,0.0654 -0.003,0.12918 -0.008,0.19299 l -0.007,0.0649 c -0.008,0.0501 -0.0148,0.10324 -0.0319,0.15045 -0.0161,0.0441 -0.0348,0.0861 -0.0607,0.12451 a 0.94679284,0.94679284 0 0 1 -0.0882,0.10739 l -0.0179,0.0182 -0.10532,0.0926 c 0.0579,0.0563 0.11491,0.11258 0.16005,0.17847 l 0.0345,0.0563 c 0.0306,0.0563 0.0586,0.11387 0.0773,0.17535 0.0176,0.0617 0.0332,0.12658 0.0394,0.19039 0.004,0.0482 0.007,0.0962 0.008,0.14397 l -0.01,0.21945 -0.029,0.18754 -0.047,0.15512 z m 3.63932,-0.2747 -0.047,0.15512 -0.062,0.11958 -0.0389,0.0506 -0.042,0.042 -0.047,0.035 -0.0521,0.0288 -0.0581,0.0228 -0.0643,0.0166 -0.0711,0.0106 -0.0796,0.004 h -1.91071 v -0.81372 h 1.78568 v -0.45083 h -1.08765 v -0.78415 h 1.08765 v -0.45083 h -1.78568 v -0.81373 h 1.91019 l 0.0659,0.004 0.0599,0.0112 0.0563,0.0187 0.0534,0.027 0.0508,0.034 0.0488,0.0425 0.0477,0.0527 0.084,0.12607 0.0654,0.14578 0.0438,0.16004 0.0221,0.17535 0.002,0.12918 c -7.8e-4,0.0649 -0.003,0.12866 -0.008,0.19247 l -0.007,0.0649 c -0.008,0.0501 -0.0148,0.10324 -0.0319,0.15045 -0.0163,0.0441 -0.0348,0.0861 -0.0604,0.12451 a 1.0406939,1.0406939 0 0 1 -0.0885,0.10739 l -0.0176,0.0182 -0.10558,0.0926 c 0.0394,0.0379 0.0781,0.0776 0.11439,0.11803 l 0.0254,0.0309 0.0381,0.0573 c 0.0379,0.0638 0.0721,0.13229 0.0942,0.20363 0.0176,0.0617 0.0335,0.12606 0.0397,0.19039 0.005,0.0482 0.007,0.0962 0.009,0.14397 l -0.01,0.21945 z m 3.50987,0.22853 -0.0376,0.0563 -0.083,0.0871 -0.0988,0.0623 -0.11594,0.0376 -0.13619,0.0132 -1.62018,-0.004 -0.12581,-0.0254 -0.10739,-0.0506 -0.0921,-0.0765 -0.0776,-0.10272 -0.0602,-0.13125 -0.0413,-0.15901 -0.021,-0.18806 c -0.002,-0.0936 -0.004,-0.18806 0.0109,-0.28171 0.008,-0.0446 0.0174,-0.0892 0.0291,-0.13384 l 0.0392,-0.10636 c 0.04,-0.0814 0.0866,-0.16367 0.15434,-0.22645 0.0223,-0.0202 0.0459,-0.0394 0.0713,-0.0573 l 0.12814,-0.0755 -0.0519,-0.0472 c -0.0498,-0.0462 -0.10169,-0.0936 -0.14371,-0.14682 a 0.85859844,0.85859844 0 0 1 -0.10142,-0.15797 0.92215029,0.92215029 0 0 1 -0.07,-0.19351 1.6808815,1.6808815 0 0 1 -0.0197,-0.1175 1.3737575,1.3737575 0 0 1 -0.006,-0.14293 c 0.001,-0.0664 0.004,-0.13229 0.009,-0.19922 l 0.0306,-0.17638 0.0506,-0.15357 0.0687,-0.12917 0.042,-0.0568 0.0438,-0.0467 0.0477,-0.0389 0.0514,-0.0314 0.0558,-0.0249 0.0607,-0.0176 0.0659,-0.0106 0.0731,-0.004 h 1.46377 l 0.0718,0.004 0.0654,0.0111 0.0602,0.0182 0.0563,0.0254 0.0521,0.0324 0.0488,0.0399 0.0457,0.0483 0.0436,0.0578 0.0669,0.12425 0.0495,0.15149 0.0298,0.17639 c 0.007,0.0988 0.0143,0.20051 0.006,0.29934 a 1.0723402,1.0723402 0 0 1 -0.0542,0.26899 2.4038162,2.4038162 0 0 1 -0.0197,0.049 0.90087988,0.90087988 0 0 1 -0.12373,0.19973 l -0.0405,0.0477 -0.1546,0.14137 0.15901,0.0962 0.0612,0.0584 c 0.0249,0.0314 0.0488,0.0633 0.0703,0.0968 0.0265,0.0441 0.049,0.0877 0.07,0.13436 l 0.0233,0.0612 c 0.0161,0.0558 0.0314,0.11362 0.0389,0.17068 0.006,0.0547 0.01,0.10895 0.0117,0.16368 l -0.0106,0.20207 -0.0309,0.17379 -0.0495,0.14241 z m -0.52994,-1.79242 v -0.45083 h -1.43601 v 0.45083 z m 0,1.23498 v -0.45083 h -1.43601 v 0.45083 z m -13.99075,-1.23965 h 1.37272 c 0.38365,-0.0187 0.39299,-0.69466 0.17587,-0.69363 h -1.54885 v 0.69363 z m 0,1.44146 1.51228,-0.006 c 0.45627,-0.23449 0.145,-0.66431 0,-0.69518 h -1.51228 z m -0.73927,0.72942 v -3.60326 c 0.16368,0 2.37061,-0.002 2.37061,0.004 a 0.94108615,0.94108615 0 0 1 0.92967,0.93927 c 0,0.61191 -0.56211,0.86845 -0.55744,0.87079 0.33644,0.14396 0.55744,0.49388 0.55744,0.85834 0,0.46872 -0.48792,0.90425 -0.9512,0.93978 -0.78389,0 -1.57894,-0.009 -2.34908,-0.009 z m -3.64217,-3.59445 h 0.73901 v 3.60378 h -0.73901 z m 0.88428,2.21861 v -0.73927 l 1.17194,-0.003 c 0.41659,0.0153 0.55693,-0.66431 0.16083,-0.7193 h -1.33277 v -0.73928 h 1.3792 c 0.54655,0.0314 0.98959,0.49285 0.98959,1.0477 0,0.51023 -0.36289,0.8988 -0.83499,1.06456 l 1.01216,1.45443 h -0.93486 l -0.94394,-1.3665 h -0.66716 z m 0.74239,-5.33498 v -1.35975 l 2.15453,-0.005 c 0.76781,0.0288 1.02617,-1.22149 0.29701,-1.32291 h -2.45129 v -1.35975 l 2.53715,-5.2e-4 c 1.00619,0.0578 1.82044,0.9084 1.82044,1.92834 0,0.93823 -0.66743,1.65313 -1.53588,1.95818 l 1.86246,2.67696 h -1.7198 l -1.73691,-2.51484 h -1.22771 z m -1.62667,-4.08029 h 1.35975 v 6.62885 h -1.35975 z m 8.24358,5.26443 a 1.1309635,1.1309635 0 0 1 -0.94991,-0.67339 h 3.29588 v -0.90244 h -3.29562 a 1.1317417,1.1317417 0 0 1 0.94965,-0.67391 v -0.0112 h 2.34571 v -1.35975 h -2.39759 v 0.009 c -1.30943,0.0703 -2.35583,1.16027 -2.35583,2.48656 0,1.34419 1.0739,2.44506 2.40745,2.48916 v -0.004 h 2.34571 v -1.35975 h -2.34571 v -2.6e-4 z m 3.82037,1.34808 v -6.62937 c 0.30168,0 4.3594,-0.003 4.3594,0.007 0.94446,0.01 1.71149,0.78286 1.71149,1.72913 0,1.12526 -1.03395,1.59684 -1.02643,1.60099 0.6197,0.26536 1.02643,0.90944 1.02643,1.57972 0,0.86223 -0.89777,1.6622 -1.7504,1.72861 -1.44068,0 -2.90497,-0.0161 -4.32049,-0.0161 z m 1.35975,-1.34367 2.78254,-0.0106 c 0.83888,-0.43215 0.26588,-1.22253 0,-1.28089 h -2.78254 z m 0,-2.65128 h 2.52496 c 0.70607,-0.034 0.72293,-1.27726 0.32398,-1.27467 h -2.84894 z m 5.26962,-2.53248 h 1.35975 v 1.18959 h -1.35975 z m 0,1.61448 h 1.35975 v 4.92903 h -1.35975 z m 3.83205,0 0.71593,0.001 c 0.80153,0.0371 1.45106,0.70166 1.45106,1.51798 v 0.38157 h -1.35976 v -0.31361 c -0.005,-0.15045 -0.0669,-0.21582 -0.19921,-0.22801 h -0.60802 z m -1.70786,0 h 1.36027 v 4.92903 h -1.36027 z m 5.01463,-1.61448 h 1.35975 v 1.5294 h 1.12214 v 1.1901 h -1.12007 v 2.23625 c 0.005,0.15045 0.0669,0.21582 0.1987,0.22801 h 0.96106 v 1.35975 l -1.06845,-0.002 c -0.80153,-0.0376 -1.45106,-0.70218 -1.45106,-1.5185 v -2.30421 h -0.91903 v -1.1901 h 0.91696 z m 4.91606,2.89952 v -1.35975 l 1.48996,0.002 c 0.80102,0.0371 1.45054,0.70166 1.45054,1.51798 v 3.4842 h -1.35975 v -3.41624 c -0.005,-0.15045 -0.0664,-0.21581 -0.19869,-0.22801 h -1.38206 z m -1.68607,-2.9846 h 1.35975 v 6.62885 h -1.35975 z"
         id="path209"
         style="clip-rule:evenodd;fill:#000000;fill-opacity:1;fill-rule:evenodd;stroke:none;stroke-width:0.259395" /></g></g></svg>
