<?xml version="1.0" encoding="UTF-8" standalone="no"?>
<!-- Created with Inkscape (http://www.inkscape.org/) -->

<svg
   width="210mm"
   height="297mm"
   viewBox="0 0 210 297"
   version="1.1"
   id="svg1"
   xml:space="preserve"
   inkscape:version="1.4 (86a8ad7, 2024-10-11)"
   sodipodi:docname="Crazy Midi Logo.svg"
   xmlns:inkscape="http://www.inkscape.org/namespaces/inkscape"
   xmlns:sodipodi="http://sodipodi.sourceforge.net/DTD/sodipodi-0.dtd"
   xmlns="http://www.w3.org/2000/svg"
   xmlns:svg="http://www.w3.org/2000/svg"><sodipodi:namedview
     id="namedview1"
     pagecolor="#ffffff"
     bordercolor="#000000"
     borderopacity="0.25"
     inkscape:showpageshadow="2"
     inkscape:pageopacity="0.0"
     inkscape:pagecheckerboard="0"
     inkscape:deskcolor="#d1d1d1"
     inkscape:document-units="mm"
     inkscape:zoom="0.72426347"
     inkscape:cx="396.26464"
     inkscape:cy="561.25984"
     inkscape:window-width="1920"
     inkscape:window-height="1057"
     inkscape:window-x="1912"
     inkscape:window-y="-8"
     inkscape:window-maximized="1"
     inkscape:current-layer="layer1" /><defs
     id="defs1" /><g
     inkscape:label="Ebene 1"
     inkscape:groupmode="layer"
     id="layer1"><path
       style="fill:#000000"
       d="M 98.316678,208.9251 C 90.161083,208.54489 82.581747,206.71462 75.393075,203.38946 58.77878,195.70444 46.453716,180.907 41.951814,163.23997 c -0.995388,-3.90625 -1.568414,-7.68624 -1.808515,-11.92994 -0.04708,-0.83221 -0.07184,-4.15474 -0.0405,-5.43465 l 0.01451,-0.5925 -1.577482,-0.0107 -1.577482,-0.0107 v -0.75547 -0.75547 h 1.63448 c 1.58031,0 1.634481,-0.003 1.634481,-0.0779 0,-0.1401 0.128777,-1.56287 0.199143,-2.20019 0.03784,-0.34273 0.06827,-0.62706 0.06763,-0.63184 -6.44e-4,-0.005 -0.798863,-0.0186 -1.773819,-0.0306 l -1.772649,-0.022 0.0076,-0.73551 c 0.0042,-0.40454 0.02207,-0.74067 0.03971,-0.74697 0.01764,-0.006 0.857641,-0.0155 1.866667,-0.0204 l 1.834593,-0.009 0.189139,-1.12371 c 0.104027,-0.61804 0.217713,-1.26154 0.252635,-1.43002 0.03492,-0.16847 0.05976,-0.31005 0.0552,-0.31461 -0.0046,-0.005 -0.959271,-0.0213 -2.12157,-0.0373 l -2.113271,-0.029 v -0.75391 -0.75392 l 2.276326,0.0147 2.276327,0.0147 0.03131,-0.12259 c 0.01722,-0.0674 0.152351,-0.61619 0.300287,-1.21948 1.365001,-5.56661 3.601769,-11.06108 6.553965,-16.09938 4.974868,-8.49026 12.059009,-15.75251 20.42709,-20.940686 8.298471,-5.145009 17.503755,-8.163562 27.241606,-8.932937 1.793293,-0.141686 2.49386,-0.165334 4.862575,-0.16414 2.51151,0.0013 3.44408,0.03952 5.47552,0.224588 6.03595,0.549899 11.89253,1.972925 17.42765,4.23455 15.26128,6.235691 27.40424,18.467325 33.52007,33.764825 1.05192,2.63116 1.81899,5.01481 2.53786,7.88637 l 0.33246,1.32802 0.775,0.002 c 0.42625,0.001 1.47833,0.006 2.33797,0.0102 l 1.56297,0.008 v 0.75595 0.75594 h -2.18887 c -2.06579,0 -2.18764,0.004 -2.16686,0.0715 0.0291,0.0946 0.3281,1.78784 0.41757,2.36492 l 0.0705,0.45462 0.24405,0.0255 c 0.13424,0.014 1.00446,0.0255 1.93384,0.0255 h 1.68978 l -2.9e-4,0.48013 c -1.6e-4,0.26407 -0.012,0.60425 -0.0263,0.75595 l -0.0261,0.27581 h -1.79202 -1.79202 l 2.2e-4,0.0919 c 1.2e-4,0.0506 0.045,0.53325 0.0998,1.07263 0.0548,0.53938 0.11198,1.14797 0.12715,1.35241 l 0.0276,0.37173 0.70008,0.0266 c 0.38505,0.0146 1.146,0.0266 1.691,0.0267 l 0.9909,1.2e-4 v 0.76257 0.76257 l -1.6315,-0.0275 -1.63149,-0.0275 0.0228,2.0538 c 0.0351,3.16542 -0.0882,5.51427 -0.43917,8.36699 -1.16129,9.4382 -4.47475,18.35154 -9.77091,26.28412 -4.96617,7.43832 -11.61408,13.77834 -19.25976,18.36773 -2.54471,1.5275 -5.27579,2.91111 -7.90934,4.00703 -6.33784,2.63741 -12.69671,4.1073 -19.75425,4.56633 -1.14238,0.0743 -5.077121,0.11136 -6.211022,0.0585 z m 3.820592,-6.68003 c 1.45783,-0.0297 3.17177,-0.15531 4.78086,-0.35033 11.13107,-1.34906 21.51038,-6.12416 29.8241,-13.72084 0.64344,-0.58794 2.75368,-2.68975 3.27414,-3.26106 6.36024,-6.98162 10.67803,-15.12093 12.78601,-24.1024 0.72979,-3.10944 1.15385,-6.09678 1.35727,-9.56171 0.0659,-1.12248 0.0668,-4.37439 0.002,-5.51637 -0.29418,-5.14716 -1.14188,-9.64046 -2.702,-14.32214 -3.68418,-11.05562 -10.92941,-20.65892 -20.61636,-27.32626 -7.74068,-5.327764 -16.8422,-8.541575 -26.23341,-9.263207 -2.86516,-0.220163 -6.561862,-0.188019 -9.357412,0.08137 -8.793556,0.847367 -17.159406,3.805467 -24.496782,8.661877 -2.623005,1.73608 -5.182855,3.77472 -7.410982,5.90201 -0.250227,0.23891 -0.533948,0.50615 -0.630491,0.59389 -0.247183,0.22462 -2.000296,2.0716 -2.501572,2.63551 -3.163573,3.55884 -5.838593,7.5124 -7.962515,11.76826 -3.137996,6.28784 -4.959446,12.90005 -5.498633,19.9611 -0.203858,2.66967 -0.188606,5.84034 0.04138,8.60146 0.419389,5.03512 1.558409,10.01274 3.371511,14.7338 4.135969,10.76947 11.67733,19.97186 21.455129,26.18075 7.238526,4.59645 15.52178,7.39788 24.062011,8.13787 1.623524,0.14067 3.992295,0.23444 5.046456,0.19977 0.20227,-0.007 0.83665,-0.0217 1.40974,-0.0333 z m -20.757909,-22.6381 c 0,-1.21224 -0.01422,-1.85922 -0.04086,-1.85922 -0.02638,0 -0.04086,-0.4571 -0.04086,-1.28957 0,-0.8493 0.01395,-1.28094 0.04086,-1.26431 0.02634,0.0163 0.04086,-0.14259 0.04086,-0.44707 v -0.47232 H 72.65532 63.931278 v -1.79793 -1.79793 h 8.724042 8.724041 v -0.44949 c 0,-0.27241 -0.0161,-0.44948 -0.04086,-0.44948 -0.02636,0 -0.04086,-0.44948 -0.04086,-1.26672 0,-0.81724 0.0145,-1.26672 0.04086,-1.26672 0.02661,0 0.04086,-0.61293 0.04086,-1.75707 v -1.75707 h 3.248531 3.248531 v 3.47327 3.47328 h 24.762387 24.76239 v 1.79793 1.79793 H 112.63881 87.876423 v 3.59585 3.59586 h -3.248531 -3.248531 z m 4.086202,-7.00784 v -6.4562 h -0.831649 -0.831649 l -6.44e-4,6.4562 -6.45e-4,6.4562 h 0.832294 0.832293 z m -18.687564,5.2031 c -0.01498,-0.015 -0.02724,-0.62178 -0.02724,-1.34845 v -1.3212 h 0.163449 0.163448 v 1.34844 1.34845 h -0.136207 c -0.07491,0 -0.148465,-0.0123 -0.163448,-0.0272 z m 9.643437,0 c -0.01498,-0.015 -0.02724,-0.62178 -0.02724,-1.34845 v -1.3212 h 0.163448 0.163448 v 1.34844 1.34845 h -0.136208 c -0.07491,0 -0.148465,-0.0123 -0.163448,-0.0272 z m 19.294366,-1.25921 c -0.0034,-0.70832 -0.008,-1.31084 -0.01022,-1.33893 -0.0025,-0.0318 0.06182,-0.0558 0.170139,-0.0637 l 0.174225,-0.0126 -0.01078,1.33978 -0.01078,1.33978 -0.153233,0.0117 -0.153232,0.0117 z m 16.882148,-0.0595 v -1.35091 h 0.16401 0.164 l -0.0108,1.33823 -0.0108,1.33823 -0.15324,0.0127 -0.15323,0.0127 z m 16.89912,1.3146 c -0.0127,-0.0127 -0.0231,-0.61764 -0.0231,-1.34431 v -1.3212 h 0.18443 0.18444 l -0.0108,1.33823 -0.0108,1.33823 -0.15055,0.006 c -0.0828,0.003 -0.16096,-0.004 -0.17367,-0.017 z m -65.075448,-1.33388 c 0,-1.19917 0.0047,-1.28285 0.07151,-1.27306 0.06608,0.01 0.07233,0.1071 0.08231,1.28354 0.01062,1.25239 0.0095,1.27306 -0.07151,1.27306 -0.08075,0 -0.08231,-0.0242 -0.08231,-1.28354 z m 4.831352,0.0105 c 0.01,-1.17644 0.01623,-1.27385 0.08231,-1.28354 0.06681,-0.01 0.07151,0.0739 0.07151,1.27306 0,1.25932 -0.0016,1.28354 -0.08231,1.28354 -0.08097,0 -0.08213,-0.0207 -0.07151,-1.27306 z m 2.401226,-0.0112 c 0,-1.25862 0.002,-1.29 0.08095,-1.29 0.04991,0 0.08974,0.0352 0.103876,0.0919 0.01261,0.0506 0.01756,0.62519 0.01099,1.27694 l -0.01194,1.185 -0.09194,0.013 -0.09194,0.0131 z m 2.410859,0 c 0,-1.32502 0.0032,-1.35153 0.153843,-1.25594 0.04022,0.0255 0.04929,0.30869 0.04086,1.27631 l -0.01083,1.24351 -0.09194,0.013 -0.09194,0.0131 z m 4.821719,0.022 c 0,-1.11624 0.0075,-1.26524 0.06498,-1.28729 0.03574,-0.0137 0.08171,-0.0146 0.102155,-0.002 0.02103,0.013 0.03718,0.5721 0.03718,1.28729 v 1.26431 h -0.102155 -0.102155 z m 9.65307,-0.0146 c 0.01054,-1.2461 0.01277,-1.27694 0.09252,-1.27694 0.07975,0 0.08199,0.0308 0.09252,1.27694 l 0.0108,1.27694 H 88.632369 88.52905 Z m 2.41086,0.004 0.0108,-1.27288 0.09194,-0.014 0.09194,-0.014 v 1.2869 1.2869 h -0.102737 -0.102737 z m 2.410859,-0.004 0.0108,-1.27694 0.09194,-0.005 0.09194,-0.005 v 1.28157 1.28158 H 93.45351 93.350772 Z m 4.839331,1.2497 c -0.015,-0.015 -0.0272,-0.58304 -0.0272,-1.26235 0,-1.29084 -8e-4,-1.28472 0.16679,-1.28472 0.022,0 0.0375,0.53273 0.0375,1.28715 0,1.22091 -0.004,1.28716 -0.0749,1.28716 -0.0412,0 -0.0872,-0.0123 -0.10215,-0.0272 z m 2.410862,0 c -0.015,-0.015 -0.0272,-0.58304 -0.0272,-1.26235 0,-1.29084 -8e-4,-1.28472 0.16679,-1.28472 0.022,0 0.0375,0.53273 0.0375,1.28715 0,1.22091 -0.004,1.28716 -0.0749,1.28716 -0.0412,0 -0.0872,-0.0123 -0.10215,-0.0272 z m 2.40214,-0.0243 c -0.0109,-0.0283 -0.0149,-0.60296 -0.009,-1.27693 l 0.0108,-1.22542 0.0919,-0.005 0.0919,-0.005 v 1.28157 c 0,1.26094 -0.001,1.28158 -0.083,1.28158 -0.0456,0 -0.0919,-0.0232 -0.10278,-0.0515 z m 2.42979,0.0345 c -0.009,-0.009 -0.0119,-0.58686 -0.006,-1.28338 0.0105,-1.17138 0.0166,-1.26561 0.0817,-1.25607 0.0646,0.009 0.0713,0.11479 0.0812,1.28337 0.0103,1.2147 0.007,1.27306 -0.0647,1.27306 -0.0415,0 -0.0832,-0.008 -0.0925,-0.017 z m 2.41427,-1.26764 c 0,-1.25942 0.002,-1.28449 0.0817,-1.27846 0.0798,0.006 0.0817,0.0354 0.0817,1.28462 0,1.25122 -0.002,1.27846 -0.0817,1.27846 -0.08,0 -0.0817,-0.0272 -0.0817,-1.28462 z m 2.41086,0.006 c 0,-1.25116 0.002,-1.2784 0.0817,-1.2784 0.08,0 0.0817,0.0272 0.0817,1.2784 0,1.25116 -0.002,1.2784 -0.0817,1.2784 -0.08,0 -0.0817,-0.0272 -0.0817,-1.2784 z m 4.83135,0.005 c 0.01,-1.17644 0.0162,-1.27385 0.0823,-1.28354 0.0668,-0.01 0.0715,0.0739 0.0715,1.27306 0,1.25932 -0.002,1.28354 -0.0823,1.28354 -0.081,0 -0.0821,-0.0207 -0.0715,-1.27306 z m 2.40122,-0.011 v -1.28974 l 0.0919,0.014 0.0919,0.014 v 1.26266 1.26265 l -0.0919,0.013 -0.0919,0.0131 z m 2.42049,0.01 c 0.0105,-1.24902 0.0128,-1.27986 0.0925,-1.27986 0.08,0 0.0817,0.0272 0.0817,1.26672 v 1.26673 l -0.0925,0.0131 -0.0925,0.0131 z m 2.40123,-0.0131 v -1.29283 l 0.0919,0.013 0.0919,0.0131 v 1.26672 1.26673 l -0.0919,0.013 -0.0919,0.0131 z m 2.41086,0 c 0,-0.75442 0.0155,-1.28715 0.0375,-1.28715 0.1678,0 0.16679,-0.008 0.16679,1.31196 v 1.26235 h -0.10215 -0.10216 z m 2.41086,0.006 v -1.28157 l 0.0919,0.005 0.0919,0.005 0.0108,1.27694 0.0108,1.27694 h -0.10274 -0.10274 z m 4.82172,0.0192 c 0,-1.11624 0.008,-1.26524 0.065,-1.28729 0.0357,-0.0137 0.0817,-0.0146 0.10216,-0.002 0.021,0.013 0.0372,0.5721 0.0372,1.28729 v 1.26431 h -0.10215 -0.10216 z m 2.42049,-0.0105 0.0108,-1.27288 0.0919,-0.014 0.0919,-0.014 v 1.2869 1.2869 h -0.10274 -0.10273 z m 2.41086,-0.004 c 0.0105,-1.2461 0.0128,-1.27694 0.0925,-1.27694 0.0797,0 0.082,0.0308 0.0925,1.27694 l 0.0108,1.27694 h -0.10332 -0.10332 z m -70.047143,-7.95788 v -1.34845 h 0.163449 0.163448 v 1.34845 1.34845 h -0.163448 -0.163449 z m 9.643438,0 v -1.34845 h 0.163448 0.163448 v 1.34845 1.34845 h -0.163448 -0.163448 z m 19.326571,1.29737 c -10e-4,-0.0442 -3.08e-4,-2.37865 7.71e-4,-2.57431 3.09e-4,-0.0561 0.03557,-0.0715 0.163842,-0.0715 h 0.163448 v 1.34845 1.34845 h -0.163448 c -0.102896,0 -0.16388,-0.0189 -0.164613,-0.0511 z m 16.877184,-1.29737 v -1.34845 h 0.16345 0.16345 v 1.34845 1.34845 h -0.16345 -0.16345 z m 16.9052,1.32315 c -0.0161,-0.0161 -0.0292,-0.62373 -0.0292,-1.35039 v -1.32121 h 0.18443 0.18444 l -0.0108,1.33823 -0.0108,1.33824 -0.14447,0.0122 c -0.0795,0.007 -0.15761,-9.8e-4 -0.17367,-0.017 z m -65.081528,-1.32315 c 0,-1.23948 0.0018,-1.26672 0.08172,-1.26672 0.07997,0 0.08172,0.0272 0.08172,1.26672 0,1.23948 -0.0018,1.26672 -0.08172,1.26672 -0.07997,0 -0.08172,-0.0272 -0.08172,-1.26672 z m 4.821719,0 c 0,-1.23948 0.0018,-1.26672 0.08172,-1.26672 0.07997,0 0.08172,0.0272 0.08172,1.26672 0,1.23948 -0.0018,1.26672 -0.08172,1.26672 -0.07997,0 -0.08172,-0.0272 -0.08172,-1.26672 z m 2.410859,0 v -1.27241 l 0.09194,0.0131 0.09194,0.0131 v 1.24629 1.24629 l -0.09194,0.0131 -0.09194,0.0131 z m 2.410859,0 v -1.26672 h 0.102155 0.102155 v 1.26672 1.26672 h -0.102155 -0.102155 z m 4.821719,0 v -1.26672 h 0.102155 0.102155 v 1.26672 1.26672 h -0.102155 -0.102155 z m 9.643437,0 v -1.26672 h 0.102155 0.102155 v 1.26672 1.26672 H 88.63237 88.530215 Z m 2.410859,0 v -1.26672 h 0.102155 0.102155 v 1.26672 1.26672 h -0.102155 -0.102155 z m 2.41086,0 v -1.26672 h 0.102155 0.102155 v 1.26672 1.26672 h -0.102155 -0.102155 z m 4.821724,0 v -1.26672 h 0.10215 0.10216 v 1.26672 1.26672 h -0.10216 -0.10215 z m 2.410862,0 v -1.26672 h 0.10215 0.10216 v 1.26672 1.26672 h -0.10216 -0.10215 z m 2.4381,1.23948 c -0.015,-0.015 -0.0272,-0.58501 -0.0272,-1.26672 v -1.23948 h 0.10215 0.10216 v 1.26672 c 0,1.2011 -0.004,1.26672 -0.0749,1.26672 -0.0412,0 -0.0872,-0.0123 -0.10215,-0.0272 z m 2.41545,-1.17154 c -0.006,-0.65933 -0.005,-1.22935 0.002,-1.26672 0.007,-0.0374 0.0486,-0.0679 0.0919,-0.0679 0.076,0 0.0787,0.0433 0.0787,1.26672 0,1.23324 -0.002,1.26672 -0.0805,1.26672 -0.078,0 -0.0809,-0.037 -0.0919,-1.19878 z m 2.41989,-0.0679 c 0,-1.23948 0.002,-1.26672 0.0817,-1.26672 0.08,0 0.0817,0.0272 0.0817,1.26672 0,1.23948 -0.002,1.26672 -0.0817,1.26672 -0.08,0 -0.0817,-0.0272 -0.0817,-1.26672 z m 2.41086,0 c 0,-1.23948 0.002,-1.26672 0.0817,-1.26672 0.08,0 0.0817,0.0272 0.0817,1.26672 0,1.23948 -0.002,1.26672 -0.0817,1.26672 -0.08,0 -0.0817,-0.0272 -0.0817,-1.26672 z m 4.82172,-0.003 v -1.26957 l 0.0919,0.0131 c 0.058,0.008 0.0901,0.0395 0.0868,0.0846 -0.003,0.0393 -0.007,0.60475 -0.0102,1.2565 -0.005,1.15606 -0.007,1.185 -0.0868,1.185 -0.08,0 -0.0817,-0.0272 -0.0817,-1.26956 z m 2.41085,0.003 v -1.27241 l 0.0919,0.0131 0.0919,0.0131 v 1.24629 1.24629 l -0.0919,0.0131 -0.0919,0.0131 z m 2.41086,0 v -1.26672 h 0.10216 0.10215 v 1.26672 1.26672 h -0.10215 -0.10216 z m 2.41086,0 v -1.26672 h 0.10216 0.10215 v 1.26672 1.26672 h -0.10215 -0.10216 z m 2.41086,0 v -1.26672 h 0.10216 0.10215 v 1.26672 1.26672 h -0.10215 -0.10216 z m 2.41086,0 v -1.26672 h 0.10216 0.10215 v 1.26672 1.26672 h -0.10215 -0.10216 z m 4.82172,0 v -1.26672 h 0.10216 0.10215 v 1.26672 1.26672 h -0.10215 -0.10216 z m 2.41086,0 v -1.26672 h 0.10215 0.10216 v 1.26672 1.26672 h -0.10216 -0.10215 z m 2.41086,0 v -1.26672 h 0.10215 0.10216 v 1.26672 1.26672 h -0.10216 -0.10215 z m -36.816681,-9.67154 c -0.10114,-0.008 -0.48728,-0.0495 -0.85811,-0.093 -0.370824,-0.0435 -0.802931,-0.0905 -0.960251,-0.10443 -0.15732,-0.0139 -0.357064,-0.0437 -0.443874,-0.0661 l -0.15783,-0.0409 0.0282,-0.33865 0.0282,-0.33866 -0.15641,-0.0258 c -0.263017,-0.0435 -0.600391,-0.027 -0.708053,0.0346 -0.173579,0.0992 -0.238418,0.0734 -0.384208,-0.15323 -0.07591,-0.11799 -0.181413,-0.25375 -0.234449,-0.30169 -0.100269,-0.0906 -0.331431,-0.21929 -0.393982,-0.21929 -0.01981,0 -0.09396,0.0894 -0.164782,0.19872 -0.184086,0.28409 -0.226331,0.31247 -0.374055,0.25128 -0.06676,-0.0277 -0.249303,-0.14481 -0.405653,-0.26036 -0.15635,-0.11554 -0.566041,-0.4027 -0.910423,-0.63813 -0.663967,-0.4539 -0.973478,-0.70985 -0.973478,-0.805 0,-0.0319 0.07694,-0.16719 0.170982,-0.30054 0.09404,-0.13335 0.162995,-0.25044 0.153233,-0.2602 -0.0098,-0.01 -0.144381,-0.11121 -0.299153,-0.22546 -0.235671,-0.17397 -0.309988,-0.20772 -0.457286,-0.20772 -0.207831,0 -0.232962,-0.0304 -0.228031,-0.27608 0.0036,-0.17862 -0.197682,-0.75616 -0.281584,-0.80801 -0.01942,-0.012 -0.125995,0.0256 -0.236831,0.0836 -0.110835,0.058 -0.254138,0.10911 -0.318449,0.11369 -0.107131,0.008 -0.131318,-0.0191 -0.288603,-0.31858 -0.175705,-0.33458 -0.967143,-2.09704 -1.010911,-2.25121 -0.03672,-0.12936 0.112645,-0.28682 0.34543,-0.36414 0.112086,-0.0372 0.203792,-0.0853 0.203792,-0.10685 0,-0.0215 -0.06622,-0.18403 -0.147153,-0.36108 -0.112235,-0.24553 -0.170742,-0.32784 -0.246562,-0.34687 -0.05467,-0.0137 -0.119596,-0.0693 -0.144269,-0.12341 -0.03745,-0.0822 -0.02702,-0.1289 0.06318,-0.28281 0.05942,-0.10139 0.117753,-0.27264 0.129627,-0.38054 0.01187,-0.10791 0.02826,-0.25212 0.03642,-0.32048 l 0.01483,-0.12429 -0.348304,-0.0475 c -0.191567,-0.0261 -0.356134,-0.0553 -0.365704,-0.0649 -0.01515,-0.0152 0.05112,-0.83136 0.187992,-2.31551 0.02176,-0.23597 0.06145,-0.49108 0.08819,-0.5669 l 0.04862,-0.13786 0.259331,0.0266 c 0.142632,0.0146 0.285302,0.0365 0.317044,0.0487 0.14707,0.0564 0.205486,-0.54003 0.08555,-0.87355 -0.07349,-0.20436 -0.0735,-0.21283 -4.66e-4,-0.29353 0.04136,-0.0457 0.12292,-0.0842 0.181241,-0.0856 0.08544,-0.002 0.143737,-0.0601 0.300132,-0.29889 0.106752,-0.16299 0.193712,-0.31355 0.193244,-0.33457 -4.67e-4,-0.021 -0.120295,-0.11669 -0.266283,-0.2126 l -0.265432,-0.17438 0.067,-0.13209 c 0.107429,-0.21177 0.52043,-0.81146 1.109364,-1.61083 0.418704,-0.56831 0.563651,-0.73756 0.615893,-0.71916 0.03758,0.0132 0.176152,0.0964 0.307946,0.18488 0.131795,0.0884 0.253624,0.14544 0.270731,0.12666 0.01711,-0.0188 0.115534,-0.15027 0.218727,-0.2922 0.142803,-0.19642 0.186365,-0.29151 0.182358,-0.3981 -0.0081,-0.216 0.107434,-0.31838 0.325588,-0.28848 0.140947,0.0193 0.230072,-7.3e-4 0.459807,-0.10346 0.168337,-0.0753 0.284971,-0.15235 0.284971,-0.18835 0,-0.0335 -0.04819,-0.1683 -0.107084,-0.29954 -0.0589,-0.13124 -0.09657,-0.26602 -0.08372,-0.29951 0.02971,-0.0774 0.107438,-0.11639 1.423813,-0.71394 0.640004,-0.29052 1.142117,-0.49479 1.216246,-0.49479 0.09858,0 0.144004,0.0291 0.207253,0.1328 0.04455,0.073 0.0923,0.19256 0.106102,0.26561 0.01905,0.10079 0.04616,0.1327 0.112493,0.1324 0.16292,-7.5e-4 0.518012,-0.20039 0.687342,-0.38645 0.0927,-0.10187 0.2011,-0.18522 0.24087,-0.18522 0.0398,0 0.131907,0.0502 0.204757,0.11145 0.11081,0.0932 0.1864,0.11609 0.462624,0.13983 0.18159,0.0156 0.3364,0.0221 0.34403,0.0145 0.008,-0.008 0.0225,-0.0935 0.033,-0.19091 0.0436,-0.4047 0.0574,-0.44527 0.16429,-0.48593 0.0711,-0.027 0.27458,-0.0196 0.641381,0.0235 0.29548,0.0347 0.85268,0.0888 1.23821,0.12036 0.38553,0.0315 0.77628,0.0799 0.86832,0.10744 0.18611,0.0558 0.19302,0.0809 0.128,0.46625 -0.019,0.11237 -0.0225,0.21672 -0.008,0.23189 0.0147,0.0152 0.17194,0.0475 0.34947,0.0719 0.29597,0.0407 0.33435,0.0375 0.46204,-0.0378 0.19608,-0.11569 0.30761,-0.10528 0.39137,0.0365 0.0386,0.0653 0.0701,0.14709 0.0701,0.18181 0,0.0693 0.48719,0.43563 0.57725,0.43404 0.0309,-5.4e-4 0.12966,-0.11042 0.21955,-0.24418 0.0899,-0.13376 0.18269,-0.24365 0.20619,-0.24419 0.13197,-0.003 2.23983,1.46635 2.42699,1.69186 0.044,0.053 0.0225,0.10295 -0.13611,0.31644 -0.18045,0.24283 -0.23012,0.36071 -0.15199,0.36071 0.02,0 0.14876,0.0828 0.28614,0.18388 0.20659,0.15208 0.28081,0.18388 0.42918,0.18388 0.20657,0 0.229,0.0319 0.229,0.32565 0,0.1341 0.041,0.28531 0.12924,0.47679 0.0711,0.15422 0.13453,0.28716 0.141,0.29542 0.006,0.008 0.13425,-0.0423 0.28397,-0.11238 0.14971,-0.0701 0.2948,-0.12738 0.32241,-0.12738 0.0675,0 0.17452,0.20705 0.73757,1.42706 0.2637,0.57138 0.48888,1.10917 0.50041,1.19509 l 0.0209,0.15622 -0.24032,0.10607 c -0.35798,0.15799 -0.35239,0.14605 -0.21459,0.45812 0.20897,0.47325 0.52886,0.7034 1.37657,0.99035 l 0.41515,0.14053 0.0641,-0.0915 c 0.1098,-0.15676 0.4839,-0.0866 0.58942,0.11058 0.11433,0.21363 -0.007,0.53687 -0.22254,0.59087 -0.22214,0.0557 -0.51176,-0.17886 -0.51176,-0.41455 0,-0.0595 -0.12926,-0.12338 -0.62164,-0.30696 -0.58619,-0.21856 -0.62594,-0.22787 -0.69723,-0.16335 -0.0707,0.064 -0.0882,0.064 -0.27072,-8.7e-4 -0.18554,-0.0659 -0.2154,-0.0654 -0.60908,0.01 -0.22769,0.0434 -0.52191,0.0911 -0.65384,0.10602 -0.22589,0.0256 -0.24276,0.0351 -0.2895,0.16438 -0.0564,0.15603 -0.22184,0.30317 -0.34082,0.30317 -0.0441,0 -0.14192,-0.0293 -0.21729,-0.065 -0.24805,-0.11771 -0.27092,-0.42374 -0.0493,-0.66027 0.14392,-0.15363 0.42961,-0.10083 0.58829,0.10873 0.041,0.0541 0.11592,0.0483 0.63336,-0.0496 0.32278,-0.061 0.63547,-0.11081 0.69487,-0.1106 0.10914,3.9e-4 0.1576,-0.0628 0.1576,-0.20543 0,-0.0881 -0.23762,-0.60194 -0.29469,-0.63721 -0.021,-0.013 -0.14756,0.0255 -0.2813,0.0856 -0.13373,0.06 -0.28004,0.1033 -0.32513,0.0962 -0.11209,-0.0177 -1.29615,-2.62838 -1.23696,-2.72735 0.0211,-0.0353 0.15226,-0.11804 0.29143,-0.18385 0.13917,-0.0658 0.25303,-0.13518 0.25303,-0.15414 0,-0.0689 -0.32884,-0.68647 -0.36555,-0.68647 -0.10819,0 -0.25824,0.1013 -0.55395,0.37397 -0.17986,0.16584 -0.39464,0.34333 -0.4773,0.39442 -0.1351,0.0835 -0.14808,0.10656 -0.12838,0.22799 0.0258,0.15906 -0.0686,0.36829 -0.19733,0.43717 -0.048,0.0257 -0.15952,0.037 -0.24793,0.0251 -0.28838,-0.0387 -0.40846,-0.2389 -0.29956,-0.49953 0.0758,-0.18136 0.25707,-0.2649 0.51294,-0.23637 0.17405,0.0194 0.19627,0.01 0.41592,-0.18305 0.12762,-0.11195 0.34356,-0.28936 0.47986,-0.39424 0.32678,-0.25146 0.35715,-0.31155 0.23206,-0.45919 -0.0538,-0.0634 -0.20927,-0.19361 -0.34559,-0.28928 -0.24634,-0.17288 -0.24816,-0.1734 -0.29576,-0.0845 -0.0263,0.0492 -0.11123,0.17764 -0.18864,0.2854 l -0.14075,0.19591 -0.19092,-0.097 c -0.21794,-0.1107 -0.92761,-0.60378 -1.73922,-1.20842 l -0.55563,-0.41394 0.0654,-0.1264 c 0.0359,-0.0695 0.11859,-0.19988 0.18364,-0.28968 0.065,-0.0898 0.11828,-0.17536 0.11828,-0.19013 0,-0.04 -0.49743,-0.39572 -0.59586,-0.42612 -0.15278,-0.0472 -0.2383,0.0973 -0.48966,0.82716 l -0.17599,0.51101 0.0996,0.1183 c 0.26155,0.31084 -0.029,0.76939 -0.40819,0.64424 -0.45251,-0.14934 -0.39934,-0.71807 0.0763,-0.81624 0.11206,-0.0231 0.13485,-0.0635 0.33602,-0.59569 0.29553,-0.78179 0.28856,-0.85772 -0.0824,-0.89772 -0.10448,-0.0113 -0.2706,-0.029 -0.36914,-0.0395 l -0.17916,-0.019 -0.0285,0.34231 c -0.0256,0.30702 -0.0378,0.34465 -0.11855,0.36492 -0.13858,0.0348 -2.366351,-0.16771 -2.762741,-0.25112 -0.18731,-0.0394 -0.23481,-0.16927 -0.18098,-0.49479 l 0.0398,-0.24055 -0.29811,-0.027 c -0.16395,-0.0149 -0.364234,-0.0146 -0.445064,5.5e-4 -0.13805,0.0259 -0.145607,0.0353 -0.1247,0.15499 0.15971,0.91406 0.191,1.11247 0.191,1.21107 0,0.0948 0.0217,0.12005 0.12208,0.14209 0.165694,0.0364 0.286544,0.20016 0.286544,0.3883 0,0.2795 -0.23294,0.45769 -0.477304,0.36511 -0.323367,-0.12253 -0.398697,-0.41226 -0.173777,-0.66843 l 0.125307,-0.14271 -0.0844,-0.49719 c -0.0465,-0.27346 -0.0845,-0.54596 -0.0845,-0.60556 0,-0.0596 -0.0301,-0.15133 -0.0669,-0.20383 -0.0564,-0.0805 -0.092,-0.0921 -0.2273,-0.0739 -0.19514,0.0262 -0.604772,0.22052 -0.604932,0.28701 -6e-5,0.0264 0.0494,0.16465 0.10985,0.30713 0.0827,0.19471 0.0994,0.27591 0.0675,0.32689 -0.0536,0.0855 -0.567575,0.34494 -1.280477,0.64627 -0.3034,0.12824 -0.715794,0.31259 -0.916429,0.40965 -0.506436,0.24501 -0.531931,0.24098 -0.690681,-0.10933 -0.07124,-0.1572 -0.150691,-0.28592 -0.176559,-0.28604 -0.111357,-5e-4 -0.605477,0.24355 -0.632586,0.31244 -0.0603,0.15325 -0.02792,0.2125 0.333235,0.60978 0.202785,0.22307 0.391261,0.45697 0.418835,0.51978 0.04035,0.0919 0.07407,0.11267 0.172721,0.10643 0.345923,-0.0219 0.510776,0.0957 0.510776,0.36451 0,0.30282 -0.238118,0.47125 -0.507253,0.3588 -0.213108,-0.089 -0.284016,-0.2259 -0.251575,-0.48555 l 0.02697,-0.21582 -0.422828,-0.48904 c -0.53222,-0.61556 -0.565761,-0.62358 -0.855261,-0.20434 -0.108129,0.15658 -0.195606,0.30369 -0.194394,0.32689 0.0012,0.0232 0.111539,0.12017 0.245172,0.21546 0.133633,0.0953 0.242969,0.19867 0.242969,0.22972 0,0.074 -0.308321,0.54383 -0.741098,1.12935 -0.191032,0.25845 -0.442369,0.60875 -0.558527,0.77843 -0.116158,0.16969 -0.265887,0.36092 -0.332731,0.42496 l -0.121535,0.11644 -0.275027,-0.20051 -0.275027,-0.2005 -0.219004,0.32163 c -0.120452,0.17689 -0.21337,0.35171 -0.206485,0.38847 0.0085,0.0456 0.232295,0.14886 0.702139,0.32416 l 0.68962,0.25732 0.07747,-0.0832 c 0.111855,-0.12006 0.265625,-0.14676 0.420327,-0.073 0.255122,0.12166 0.295935,0.50925 0.0722,0.68562 -0.225506,0.17777 -0.621627,0.006 -0.621627,-0.26996 v -0.13102 l -0.675781,-0.24942 c -0.868747,-0.32065 -0.823297,-0.34139 -0.895317,0.40851 l -0.0221,0.23014 0.352755,0.0294 0.352755,0.0294 -0.02236,0.53729 c -0.0123,0.2955 -0.07096,0.9602 -0.130372,1.47711 -0.08534,0.7425 -0.122357,0.95076 -0.176325,0.99189 -0.05988,0.0456 -0.252472,0.0437 -0.596982,-0.006 -0.0537,-0.008 -0.09765,0.18327 -0.113329,0.49244 -0.01319,0.26027 -0.0085,0.27707 0.09456,0.33565 0.09905,0.0563 0.164555,0.0515 0.755947,-0.0553 l 0.647495,-0.11701 0.08416,-0.16703 c 0.109272,-0.21688 0.255817,-0.29144 0.448081,-0.22799 0.2864,0.0945 0.359585,0.42323 0.147161,0.66098 -0.163155,0.1826 -0.360706,0.18255 -0.549199,-1.5e-4 l -0.135725,-0.13155 -0.446721,0.0666 c -0.794466,0.11849 -0.873366,0.13847 -0.938311,0.23759 -0.05165,0.0788 -0.0525,0.11805 -0.0059,0.27269 0.02992,0.0993 0.103202,0.25787 0.162838,0.35229 l 0.108429,0.17166 0.28471,-0.12575 c 0.15659,-0.0692 0.309632,-0.11619 0.340093,-0.10451 0.06936,0.0266 0.141094,0.16979 0.619019,1.23538 0.211675,0.47196 0.441654,0.97762 0.511065,1.1237 0.06941,0.14609 0.126216,0.29375 0.126234,0.32816 1.9e-5,0.0371 -0.124467,0.12415 -0.306327,0.21413 l -0.306359,0.1516 0.172448,0.34771 c 0.220878,0.44536 0.25879,0.44916 0.681675,0.0683 0.170628,-0.15366 0.406699,-0.34841 0.524603,-0.43277 0.180302,-0.12901 0.21053,-0.16869 0.190209,-0.24966 -0.03307,-0.13175 0.05283,-0.37324 0.159277,-0.4478 0.113385,-0.0794 0.353525,-0.0787 0.467861,10e-4 0.126966,0.0889 0.19306,0.35563 0.123895,0.49994 -0.06918,0.14433 -0.29037,0.22048 -0.501896,0.17277 -0.149845,-0.0338 -0.165517,-0.0261 -0.486001,0.23957 -0.18214,0.15096 -0.401376,0.32621 -0.487191,0.38943 -0.196635,0.14487 -0.261274,0.27574 -0.201256,0.40746 0.05076,0.11141 0.592659,0.50484 0.612667,0.44482 0.04324,-0.12971 0.269549,-0.42705 0.354493,-0.46576 0.08421,-0.0384 0.129241,-0.0285 0.284108,0.0623 0.233931,0.1371 1.266615,0.87783 1.813127,1.30053 0.469191,0.36291 0.456619,0.31479 0.178836,0.68449 l -0.163544,0.21765 0.232417,0.15066 c 0.127829,0.0829 0.257654,0.18141 0.288498,0.219 0.0936,0.11407 0.20109,0.0816 0.286918,-0.0866 0.0859,-0.16838 0.453811,-1.14544 0.453811,-1.20518 0,-0.0202 -0.03678,-0.0835 -0.08172,-0.1406 -0.12763,-0.16226 -0.106031,-0.32591 0.0642,-0.48646 0.08026,-0.0757 0.163005,-0.13762 0.183879,-0.13762 0.09288,0 0.02244,-0.073 -0.152474,-0.15796 -0.363734,-0.17672 -0.831124,-0.58504 -0.831124,-0.72609 0,-0.0989 0.06482,-0.0611 0.384799,0.22465 0.275076,0.24563 0.736736,0.53217 0.782952,0.48595 0.0089,-0.009 0.559671,-1.47417 1.223958,-3.25618 1.102057,-2.95639 1.205477,-3.25539 1.181437,-3.4157 -0.0238,-0.15887 -0.016,-0.18246 0.0816,-0.24641 0.134461,-0.0881 0.276151,-0.0363 0.364361,0.1332 0.052,0.0998 0.18153,0.15956 1.03373,0.47646 0.53588,0.19927 2.60166,0.96842 4.59062,1.70922 2.80203,1.04363 3.63009,1.33692 3.67758,1.30256 0.20206,-0.14618 0.3197,-0.17932 0.44794,-0.1262 0.29813,0.12349 0.38041,0.4453 0.16814,0.65757 -0.14184,0.14184 -0.29325,0.15404 -0.48218,0.0388 -0.12122,-0.0739 -0.15062,-0.12911 -0.18338,-0.34425 -0.0129,-0.085 0.20566,5.7e-4 -4.11844,-1.6113 -1.33721,-0.49847 -3.0381,-1.13319 -3.77974,-1.4105 -0.76537,-0.28617 -1.36523,-0.48928 -1.38727,-0.46971 -0.0213,0.019 -0.0697,0.0345 -0.10752,0.0345 -0.0498,0 -0.10847,0.1097 -0.213151,0.39841 -0.0794,0.21912 -0.60764,1.63959 -1.173757,3.15659 -0.566127,1.517 -1.053682,2.82585 -1.083442,2.90854 l -0.0541,0.15036 0.19126,0.0696 c 0.128285,0.0467 0.349465,0.0738 0.671605,0.0823 0.264177,0.007 0.501994,0.0261 0.528484,0.0425 0.16379,0.10123 -0.702724,0.13056 -1.090534,0.0369 -0.324765,-0.0784 -0.314495,-0.0817 -0.239005,0.0766 0.11697,0.24529 -0.033,0.52914 -0.303845,0.57489 l -0.154326,0.0261 -0.23903,0.6387 c -0.174406,0.46602 -0.228285,0.65603 -0.199285,0.70279 0.06616,0.10669 0.220828,0.15629 0.547931,0.17569 l 0.311415,0.0185 0.0259,-0.26934 c 0.044,-0.4571 0.0476,-0.4631 0.266005,-0.43571 0.10369,0.013 0.54709,0.0513 0.985324,0.0851 0.87812,0.0676 1.350571,0.12174 1.643401,0.18814 l 0.1928,0.0437 -0.0208,0.19033 c -0.0115,0.10468 -0.0292,0.25718 -0.0393,0.33889 l -0.0185,0.14856 0.23469,0.0267 c 0.12908,0.0147 0.30893,0.0367 0.39967,0.0489 0.14392,0.0193 0.17167,0.01 0.21745,-0.0759 0.0444,-0.083 0.0363,-0.18079 -0.0526,-0.63696 -0.0578,-0.2964 -0.10594,-0.59856 -0.10699,-0.67145 -0.002,-0.11436 -0.0255,-0.14407 -0.17366,-0.21669 -0.19265,-0.0944 -0.29421,-0.25846 -0.2555,-0.41272 0.0764,-0.30453 0.45482,-0.40506 0.67938,-0.18049 0.17785,0.17785 0.14353,0.43111 -0.0815,0.60146 -0.0545,0.0413 -0.0483,0.12646 0.0533,0.73552 0.0632,0.37886 0.12338,0.70262 0.13371,0.71948 0.0622,0.10153 0.83119,-0.15518 0.83119,-0.27748 0,-0.0286 -0.0543,-0.17299 -0.12061,-0.32085 l -0.12062,-0.26883 0.13083,-0.0995 c 0.072,-0.0547 0.22278,-0.13617 0.33515,-0.18098 0.11237,-0.0448 0.5467,-0.24668 0.96519,-0.44859 0.85366,-0.41188 1.22845,-0.56034 1.32297,-0.52406 0.0353,0.0135 0.11893,0.14672 0.18589,0.29597 0.11999,0.26742 0.12367,0.27098 0.25402,0.2451 0.21138,-0.042 0.49603,-0.20027 0.54638,-0.30387 0.0684,-0.14075 0.0319,-0.22088 -0.24023,-0.52682 -0.13537,-0.15222 -0.3194,-0.36852 -0.40895,-0.48066 -0.15521,-0.19437 -0.17248,-0.20411 -0.36915,-0.20818 -0.17078,-0.004 -0.22274,-0.0234 -0.30161,-0.11506 -0.11756,-0.13667 -0.12307,-0.32576 -0.0147,-0.50353 0.0973,-0.15956 0.23756,-0.2025 0.39521,-0.12097 0.22189,0.11474 0.27364,0.20791 0.24885,0.44805 l -0.0224,0.21703 0.40479,0.48845 c 0.33041,0.39869 0.43671,0.49996 0.57847,0.55103 0.11287,0.0407 0.19237,0.10152 0.22705,0.1738 0.0639,0.13322 0.13141,0.16873 0.75561,0.39758 l 0.48207,0.17674 0.12362,-0.14996 c 0.068,-0.0825 0.1438,-0.14996 0.16849,-0.14996 0.0247,0 0.0798,-0.0316 0.12253,-0.0703 0.0736,-0.0666 0.0854,-0.066 0.22416,0.0102 0.31383,0.17239 0.38442,0.58341 0.13801,0.80359 -0.13362,0.11941 -0.41905,0.1984 -0.44421,0.12294 -0.008,-0.0245 -0.042,-0.0343 -0.0751,-0.0216 -0.0904,0.0347 -0.22057,-0.10635 -0.22057,-0.23898 0,-0.13211 -0.007,-0.13641 -0.67423,-0.39454 -0.67568,-0.26155 -1.27269,-0.25086 -1.61826,0.029 l -0.0893,0.0723 0.10804,0.18437 c 0.12484,0.21302 0.13891,0.40292 0.0365,0.49314 -0.068,0.0599 -1.09022,0.5401 -2.08336,0.97867 -0.26038,0.11498 -0.4903,0.19269 -0.5312,0.17953 -0.0397,-0.0128 -0.13021,-0.15156 -0.20121,-0.30846 l -0.12909,-0.28525 -0.33513,0.15474 c -0.2655,0.1226 -0.34597,0.18055 -0.38735,0.27897 -0.0859,0.20425 -0.32958,0.24431 -0.46201,0.076 -0.0677,-0.0861 -0.13116,-0.10711 -0.42179,-0.13963 -0.18814,-0.0211 -0.35097,-0.0294 -0.36185,-0.0185 -0.0109,0.0109 -0.0268,0.1577 -0.0353,0.32626 -0.02,0.39575 -0.0313,0.40185 -0.660051,0.35458 z m 40.760981,-6.77901 c -1.44734,-0.22489 -2.71526,-0.85087 -3.75257,-1.85267 -0.60598,-0.58523 -1.026,-1.15293 -1.37778,-1.86218 -0.5885,-1.18655 -0.80801,-2.27139 -0.72761,-3.59586 0.0725,-1.19387 0.53036,-2.48791 1.23126,-3.47973 0.48315,-0.68367 1.30901,-1.45837 2.05128,-1.92419 0.57675,-0.36195 1.46214,-0.70643 2.24741,-0.87441 0.39098,-0.0836 0.56115,-0.0961 1.30758,-0.0961 0.98931,0 1.37976,0.056 2.15495,0.30897 1.91874,0.62619 3.4279,2.00055 4.21503,3.83853 0.34846,0.81367 0.50549,1.51738 0.54375,2.43672 0.14725,3.53839 -2.36987,6.57291 -5.8926,7.10385 -0.50442,0.076 -1.50213,0.0746 -2.0007,-0.003 z m -82.378958,-0.29867 c -0.797363,-0.14775 -1.275929,-0.30512 -1.942499,-0.63877 -3.092018,-1.54766 -4.552544,-5.09288 -3.452477,-8.38039 0.354557,-1.05957 0.940025,-1.96634 1.799326,-2.78676 0.929453,-0.8874 2.119478,-1.50708 3.393567,-1.76711 0.529085,-0.10798 1.585195,-0.14882 2.117123,-0.0819 1.606807,0.20225 2.965028,0.86148 4.090363,1.9853 1.369773,1.36793 2.081269,3.1749 2.010899,5.10704 -0.03733,1.02503 -0.262062,1.92458 -0.700996,2.80597 -0.954802,1.91724 -2.667801,3.24234 -4.802292,3.71483 -0.568899,0.12594 -1.936125,0.14865 -2.513014,0.0418 z M 123.5694,141.06755 c -2.73873,-0.10522 -5.41748,-0.9563 -7.42333,-2.35849 -0.81352,-0.56868 -2.5913,-2.43396 -3.19823,-3.35563 -0.80853,-1.2278 -1.28614,-2.33473 -1.65731,-3.84103 -0.34642,-1.40582 -0.49217,-2.43324 -0.51881,-3.65715 -0.0223,-1.02639 0.0279,-1.51837 0.21051,-2.06243 0.12339,-0.36757 0.32327,-0.70916 0.37037,-0.63295 0.0243,0.0393 0.0452,0.0337 0.087,-0.0236 0.0799,-0.10933 0.0742,1.05472 -0.01,2.00544 -0.088,0.9957 -0.0881,2.23134 -4e-5,2.85876 0.23114,1.64754 0.93851,3.40189 2.05739,5.10256 0.34193,0.51972 0.60876,0.83056 1.43772,1.67488 0.87184,0.888 1.52697,1.43522 2.19243,1.83132 2.90859,1.73127 5.76811,2.31913 8.79726,1.80853 1.83004,-0.30847 3.24321,-0.89307 5.03047,-2.08099 1.20627,-0.80176 1.59184,-1.15621 2.51913,-2.31581 1.61656,-2.02154 2.58482,-4.34029 2.83521,-6.78967 0.0318,-0.31079 0.0417,-0.83555 0.0279,-1.47103 -0.0275,-1.26627 -0.13628,-1.98172 -0.48317,-3.179 l -0.12575,-0.43404 -0.47636,0.48019 c -0.70372,0.70936 -1.38,1.17671 -2.19177,1.51463 l -0.36855,0.15341 -0.0872,0.34062 c -0.11938,0.46611 -0.19441,1.31055 -0.16098,1.81164 0.0629,0.94208 0.20065,1.49701 0.64937,2.61517 0.28963,0.72172 0.32819,0.84829 0.32995,1.08284 0.003,0.42818 -0.20908,0.80606 -0.55189,0.98243 -0.0812,0.0418 -0.37542,0.13278 -0.65379,0.20221 -0.77166,0.19248 -1.11637,0.31478 -1.63215,0.57908 -0.83379,0.42726 -1.5989,1.06659 -2.4926,2.08283 -0.66686,0.75831 -0.72991,0.85173 -1.07512,1.593 -0.2446,0.52522 -0.26098,0.54889 -0.41604,0.6013 -0.27038,0.0914 -0.74269,0.1067 -1.0287,0.0333 -0.34174,-0.0877 -0.62559,-0.23622 -1.25758,-0.6582 -1.71046,-1.14204 -3.29547,-1.50345 -5.20987,-1.18792 -0.9948,0.16396 -1.4565,0.11514 -2.0431,-0.21604 -0.10113,-0.0571 -0.18688,-0.10514 -0.19056,-0.10676 -0.0263,-0.0116 -0.0994,-0.74184 -0.13744,-1.37191 -0.0829,-1.37367 -0.19948,-1.88109 -0.62779,-2.73237 -0.49073,-0.97533 -0.94497,-1.63027 -1.48764,-2.14497 -0.1928,-0.18286 -0.5543,-0.52953 -0.80333,-0.77038 l -0.45278,-0.4379 -0.17607,0.105 c -0.23324,0.13908 -0.5473,0.24416 -0.82352,0.27553 -0.21208,0.0241 -0.21899,0.0221 -0.12259,-0.0351 0.14573,-0.0865 0.60051,-0.22553 0.73797,-0.22553 0.10265,0 0.11953,-0.0181 0.14258,-0.15323 0.0866,-0.50756 0.18257,-0.91875 0.24526,-1.05085 0.049,-0.10325 0.18477,-0.23442 0.42563,-0.41121 1.02658,-0.75349 2.31615,-2.57619 2.69678,-3.81166 0.19995,-0.64901 0.27041,-1.20015 0.3518,-2.75187 l 0.025,-0.47634 0.41041,-0.26939 c 0.22573,-0.14817 0.45522,-0.2694 0.50998,-0.2694 0.0548,0 0.4154,0.0664 0.80144,0.14748 1.40092,0.29438 2.72115,0.22353 4.0235,-0.21591 0.23123,-0.078 0.51985,-0.18737 0.64137,-0.24301 0.21266,-0.0974 0.22195,-0.10836 0.24772,-0.29326 0.14487,-1.03932 0.54848,-2.09966 1.12683,-2.9603 0.13206,-0.19653 0.24012,-0.36661 0.24012,-0.37797 0,-0.0386 -1.65261,-0.0206 -2.12483,0.0232 -2.56785,0.23778 -5.05233,1.21861 -6.77874,2.67614 -0.45671,0.38557 -0.64501,0.58231 -1.65364,1.72775 -1.10946,1.25994 -1.39252,1.73637 -2.31642,3.89895 -0.30651,0.71743 -0.48452,1.08698 -0.51752,1.07432 -0.0277,-0.0106 -0.0675,0.0114 -0.0884,0.0489 -0.0709,0.12677 -0.10199,-0.31155 -0.0499,-0.70432 0.14454,-1.08962 1.05047,-2.86877 2.17909,-4.27952 0.42481,-0.531 1.59462,-1.70365 2.15643,-2.16168 1.37575,-1.12158 2.83216,-1.89099 4.5835,-2.42141 1.35968,-0.41181 3.07319,-0.59407 4.49952,-0.4786 l 0.60414,0.0489 0.33493,-0.31116 c 1.61619,-1.50147 3.99297,-2.13327 6.15927,-1.63727 4.50014,1.03037 6.74854,6.06841 4.50421,10.09267 l -0.22604,0.4053 0.10665,0.33021 c 0.44769,1.38603 0.62526,2.69795 0.58826,4.34612 -0.0407,1.81449 -0.31221,3.20435 -0.93344,4.77899 -0.6064,1.53706 -1.34227,2.73621 -2.1506,3.50457 -0.23643,0.22474 -0.77198,0.75044 -1.1901,1.16821 -0.7738,0.77314 -1.17715,1.11294 -1.80832,1.52338 -1.33961,0.87115 -2.92334,1.44863 -4.67208,1.70361 -0.49884,0.0727 -1.81273,0.16875 -2.08448,0.15232 -0.0674,-0.004 -0.2513,-0.0123 -0.40862,-0.0184 z m -0.21266,-6.28587 c 0.69475,-0.12115 1.39275,-0.45301 1.90487,-0.90564 0.53844,-0.4759 1.01855,-1.27779 1.19498,-1.99588 0.12648,-0.51477 0.12675,-1.28301 6.4e-4,-1.7929 -0.44992,-1.81916 -2.13464,-3.07325 -3.96756,-2.95342 -0.9506,0.0621 -1.7378,0.39922 -2.41074,1.03227 -0.54088,0.50883 -0.87433,1.04602 -1.09329,1.76132 -0.10094,0.32974 -0.10993,0.41594 -0.10993,1.05377 0,0.63782 0.009,0.72403 0.10993,1.05376 0.21262,0.69461 0.54361,1.23661 1.05496,1.72751 0.33757,0.32407 0.55355,0.48025 0.91776,0.66365 0.74171,0.37348 1.58159,0.498 2.39838,0.35556 z m -2.29122,-2.83665 c -0.43749,-0.16227 -0.75126,-0.44677 -0.9424,-0.85452 -0.0961,-0.20505 -0.10871,-0.28168 -0.10871,-0.66181 0,-0.40221 0.009,-0.44724 0.13244,-0.69894 0.15951,-0.32401 0.45178,-0.61095 0.77804,-0.76388 0.20693,-0.097 0.28273,-0.10951 0.66271,-0.10951 0.39165,0 0.45034,0.0104 0.67333,0.11975 0.32525,0.15944 0.60851,0.45023 0.76938,0.78981 0.11824,0.24961 0.13047,0.31184 0.13047,0.66363 0,0.35132 -0.0123,0.4142 -0.12971,0.66199 -0.16568,0.34973 -0.43335,0.61699 -0.78077,0.77957 -0.35757,0.16733 -0.85007,0.19805 -1.18478,0.0739 z m 0.68734,-0.90237 c 0.0797,-0.0221 0.20837,-0.10579 0.28603,-0.18592 0.13246,-0.13666 0.14121,-0.16262 0.14121,-0.41923 0,-0.20905 -0.0193,-0.29991 -0.0817,-0.38533 -0.0947,-0.12948 -0.36843,-0.27641 -0.51502,-0.27641 -0.14296,0 -0.4465,0.16412 -0.53928,0.29158 -0.1202,0.16514 -0.13572,0.43815 -0.036,0.63356 0.10009,0.19621 0.16296,0.25207 0.36464,0.32404 0.18828,0.0672 0.20012,0.0677 0.38018,0.0177 z m 0.44155,-5.04012 0.0898,-0.0956 -1.6815,-2.18242 c -0.92482,-1.20032 -1.6878,-2.1895 -1.6955,-2.19816 -0.0246,-0.0277 -0.22087,0.11806 -0.22087,0.16408 0,0.0244 0.23636,0.35032 0.52524,0.72436 0.74274,0.96168 1.46455,1.89692 2.20423,2.85597 0.351,0.4551 0.64954,0.82745 0.66344,0.82745 0.0139,0 0.0657,-0.043 0.11511,-0.0956 z m -44.982975,15.02301 c -2.551648,-0.19227 -4.880842,-0.94923 -6.762665,-2.19777 -0.823728,-0.54653 -2.232871,-1.93836 -3.103862,-3.06573 -0.708321,-0.91681 -1.406077,-2.29985 -1.752295,-3.47327 -0.702329,-2.38035 -0.943164,-4.90592 -0.59692,-6.25972 0.128142,-0.50103 0.444703,-1.12594 0.448779,-0.88592 0.0012,0.0726 0.0041,0.0728 0.05606,0.004 0.05006,-0.066 0.05696,-0.0611 0.08043,0.0562 0.04499,0.22496 0.02798,0.75451 -0.0601,1.87095 -0.196058,2.48514 -0.0023,3.84617 0.817852,5.74536 0.375835,0.87028 1.092076,2.11348 1.58907,2.75818 0.33147,0.42999 1.948405,2.0522 2.418835,2.42673 0.703179,0.55984 2.205396,1.3657 3.309824,1.77555 1.471756,0.54618 2.762871,0.78289 4.270081,0.78289 2.11744,0 3.965514,-0.46318 5.798388,-1.45325 0.661745,-0.35746 1.813901,-1.11038 2.292293,-1.49798 0.456738,-0.37006 1.066204,-1.01549 1.585813,-1.67938 2.433799,-3.10963 3.33962,-6.76016 2.576481,-10.38342 -0.766434,-3.63891 -3.0943,-6.79364 -6.327981,-8.5757 -1.341059,-0.73905 -2.811439,-1.19515 -4.453961,-1.38158 -0.818132,-0.0929 -2.962496,-0.0568 -2.962496,0.0499 0,0.0207 0.08604,0.14309 0.1912,0.272 0.578449,0.70908 1.092112,1.74092 1.301579,2.61459 0.03906,0.16294 0.08408,0.29625 0.100029,0.29625 0.113374,0 1.064246,-0.72655 1.257147,-0.96057 l 0.113631,-0.13786 0.551093,0.0391 c 0.837772,0.0594 0.83294,0.0559 1.265176,0.91004 0.42441,0.83869 0.741037,1.29155 1.327541,1.89876 0.494489,0.51195 0.962169,0.90085 1.498258,1.24587 0.677255,0.43589 1.053499,0.59139 2.1808,0.90136 0.626682,0.17231 0.844837,0.26871 1.022668,0.45193 0.260253,0.26813 0.326902,0.62495 0.204504,1.09487 -0.03299,0.12665 -0.181479,0.55625 -0.329977,0.95466 -0.502525,1.34824 -0.615443,1.95619 -0.578669,3.11553 0.03291,1.03766 0.167859,1.61442 0.640799,2.7388 0.115462,0.2745 0.236259,0.58586 0.268438,0.6919 0.168391,0.55491 -0.06191,1.13105 -0.538659,1.34756 -0.109318,0.0497 -0.46141,0.1553 -0.782427,0.23479 -0.657276,0.16274 -0.95445,0.26682 -1.398141,0.48968 -0.892198,0.44812 -1.802891,1.22804 -2.815597,2.41128 -0.383012,0.44751 -0.449423,0.55137 -0.760196,1.18895 l -0.340521,0.6986 -0.246141,0.0522 c -0.363891,0.0772 -0.90853,0.0389 -1.21181,-0.0853 -0.135345,-0.0554 -0.558267,-0.30437 -0.939827,-0.55319 -0.984152,-0.64178 -1.474284,-0.87223 -2.32476,-1.09306 -0.976493,-0.25354 -1.900417,-0.28754 -2.945531,-0.10839 -0.896631,0.1537 -1.382049,0.10687 -1.945812,-0.18771 l -0.27047,-0.14133 -0.04553,-0.41659 c -0.02504,-0.22912 -0.06459,-0.73837 -0.08789,-1.13167 -0.08499,-1.43498 -0.264259,-2.02319 -0.985543,-3.23367 -0.402792,-0.67598 -0.719908,-1.09511 -1.090933,-1.44189 -0.170165,-0.15905 -0.524868,-0.4981 -0.788228,-0.75345 l -0.478836,-0.46428 -0.289025,0.14459 c -0.297422,0.1488 -0.668991,0.24886 -0.831313,0.22388 -0.123197,-0.019 0.311415,-0.18758 0.628402,-0.24381 l 0.230159,-0.0408 0.02749,-0.211 c 0.05152,-0.39544 0.152083,-0.81957 0.230986,-0.97423 0.05174,-0.10142 0.208259,-0.25144 0.456355,-0.43739 0.36001,-0.26984 0.595338,-0.48282 0.558239,-0.50522 -0.0095,-0.006 -0.194111,-0.10041 -0.410351,-0.21045 -0.60643,-0.3086 -1.105295,-0.6832 -1.703316,-1.27902 l -0.543724,-0.54172 -0.117257,0.25446 c -0.06449,0.13995 -0.118619,0.22863 -0.120284,0.19705 -0.0024,-0.0453 -0.01938,-0.0426 -0.08044,0.0127 -0.07483,0.0677 -0.07794,0.0635 -0.093,-0.12583 -0.0086,-0.10774 -0.0011,-0.34685 0.01662,-0.53135 l 0.0322,-0.33546 -0.223728,-0.40069 c -1.213098,-2.17266 -1.15987,-4.86677 0.13746,-6.95746 2.056685,-3.31441 6.347936,-4.29312 9.622866,-2.19469 0.177763,0.1139 0.442129,0.30457 0.587479,0.42372 0.145351,0.11914 0.294115,0.21647 0.330587,0.21629 0.03647,-1.8e-4 0.286967,-0.029 0.556657,-0.064 0.599328,-0.0778 2.109684,-0.09 2.717324,-0.0219 3.130447,0.3506 5.845301,1.63954 8.010765,3.80333 2.106809,2.10517 3.343179,4.69993 3.680516,7.72426 0.07611,0.68233 0.06516,2.21921 -0.02095,2.94207 -0.0844,0.7085 -0.228583,1.5084 -0.369735,2.05123 -0.33568,1.29092 -1.02754,2.85062 -1.737591,3.91717 -0.387214,0.58162 -0.77038,1.01467 -1.278903,1.44541 -0.252466,0.21385 -0.596938,0.54826 -0.765494,0.74312 -1.886276,2.18065 -5.142928,3.47841 -8.634328,3.44075 -0.36398,-0.004 -0.744527,-0.0134 -0.845661,-0.021 z m -2.564664,-8.69903 c 0.736646,-1.05456 1.444866,-2.07079 1.573822,-2.25829 l 0.234466,-0.34089 -0.09625,-0.0779 c -0.05294,-0.0429 -0.109996,-0.0779 -0.126794,-0.0779 -0.0168,0 -0.74413,1.02341 -1.616293,2.27424 l -1.585751,2.27424 0.09468,0.0767 c 0.05207,0.0422 0.1145,0.0701 0.138724,0.062 0.02422,-0.008 0.646754,-0.87751 1.383399,-1.93208 z m 7.243896,-0.78905 c 1.261265,-0.26032 2.298778,-1.06784 2.858834,-2.22509 0.22582,-0.46661 0.342383,-0.8891 0.385153,-1.39601 0.104711,-1.24104 -0.308727,-2.38231 -1.17788,-3.25146 -0.866158,-0.86616 -2.016507,-1.28449 -3.238939,-1.17785 -1.442576,0.12584 -2.75634,1.04523 -3.343258,2.33965 -0.240554,0.53053 -0.332884,0.93567 -0.35521,1.55863 -0.01686,0.47031 -0.006,0.64198 0.06099,0.9651 0.330322,1.59307 1.5761,2.85201 3.150982,3.18427 0.475827,0.10039 1.18063,0.10156 1.659324,0.003 z m -0.168739,-1.57422 c -0.430812,-0.10455 -0.789763,-0.40754 -0.990836,-0.83637 -0.09134,-0.19481 -0.107678,-0.28544 -0.107678,-0.5974 0,-0.31265 0.01608,-0.40144 0.107278,-0.5925 0.15144,-0.31726 0.356289,-0.53515 0.655779,-0.69753 0.245396,-0.13304 0.279197,-0.14015 0.667114,-0.14015 0.357449,0 0.437769,0.0137 0.64139,0.10911 0.128024,0.06 0.313389,0.18973 0.411922,0.28826 0.09853,0.0985 0.232829,0.28848 0.298436,0.4221 0.105212,0.21429 0.119209,0.28633 0.118642,0.61071 -5.42e-4,0.31022 -0.01739,0.40368 -0.107678,0.5974 -0.203698,0.43703 -0.559479,0.73258 -1.00936,0.83847 -0.277252,0.0652 -0.409137,0.0649 -0.685009,-0.002 z m 0.598597,-0.98498 c 0.280188,-0.1449 0.335782,-0.53429 0.111033,-0.77771 -0.261392,-0.2831 -0.659456,-0.21851 -0.814583,0.13218 -0.0785,0.17745 -0.081,0.2083 -0.02896,0.35759 0.103905,0.29809 0.449884,0.43409 0.73251,0.28794 z m 17.896235,-13.7332 c -1.394865,-0.16919 -2.550086,-0.623 -3.598972,-1.4138 -0.778231,-0.58675 -1.604875,-1.61352 -2.03412,-2.52658 -0.757503,-1.61132 -0.864584,-3.52649 -0.289189,-5.1722 0.431035,-1.23282 1.263921,-2.40359 2.263536,-3.18181 1.655333,-1.2887 3.768715,-1.76787 5.785535,-1.31175 2.36604,0.5351 4.28656,2.25803 5.04124,4.52259 0.27609,0.82847 0.32741,1.17369 0.32741,2.20254 0,1.02969 -0.0513,1.37393 -0.32846,2.20568 -0.78329,2.35034 -2.83872,4.12663 -5.29936,4.57965 -0.44063,0.0811 -1.52826,0.13685 -1.86762,0.0957 z m -72.795491,29.27167 c -0.0528,-6.88178 0.0029,-12.05139 0.136704,-12.69556 l 0.03019,-0.14533 h 4.4317 4.4317 l 0.02772,0.30647 c 0.07528,0.83212 0.11554,5.75682 0.08945,10.9408 l -0.02781,5.52659 h -4.544737 -4.544742 z m 137.954971,3.67206 c -0.0957,-0.93381 -0.13418,-7.43421 -0.08,-13.49937 l 0.0271,-3.03401 h 4.52257 4.52257 l 0.0266,0.68444 c 0.0546,1.40345 0.0798,12.16322 0.0319,13.65849 -0.0417,1.30259 -0.1076,2.36335 -0.1495,2.40524 -0.008,0.008 -2.00846,0.025 -4.44441,0.0368 l -4.429,0.0214 z m -151.337315,-1.83085 1.75e-4,-1.4428 0.296074,-0.15202 c 0.369746,-0.18985 1.415109,-0.78976 2.952106,-1.69416 4.083611,-2.40287 5.89177,-3.3264 6.860072,-3.50385 l 0.158701,-0.0291 -0.02988,0.42171 c -0.01643,0.23194 -0.04901,0.43356 -0.0724,0.44804 -0.02339,0.0145 -0.114899,0.0379 -0.203363,0.052 -0.63466,0.10149 -1.407501,0.66217 -6.427103,4.66271 -2.010903,1.60265 -3.06032,2.40102 -3.483487,2.65014 -0.04047,0.0238 -0.05104,-0.26966 -0.0509,-1.41273 z m 10.664812,-6.1443 v -2.80142 l 1.133921,0.0126 c 0.623657,0.007 1.156906,0.0275 1.184999,0.0456 0.04002,0.0259 0.05108,0.62378 0.05108,2.76234 v 2.72929 l -0.337111,0.0262 c -0.185412,0.0144 -0.718661,0.0264 -1.184999,0.0265 l -0.847887,2.4e-4 z m 150.219013,2.44496 -0.1328,-0.0165 v -2.7496 -2.74961 l 0.31263,-0.0264 c 0.17195,-0.0145 0.7052,-0.0264 1.185,-0.0264 h 0.87237 v 2.79905 2.79905 l -1.0522,-0.007 c -0.57871,-0.004 -1.11196,-0.014 -1.185,-0.023 z m 2.64582,-2.48156 c 0,-0.4136 0.0413,-0.5113 0.21744,-0.51408 0.17621,-0.003 0.68025,-0.23683 1.09431,-0.50812 0.71804,-0.47047 1.95904,-1.42886 5.41005,-4.17806 2.30718,-1.83799 3.46455,-2.71035 3.52099,-2.65391 0.0126,0.0126 0.009,0.66832 -0.007,1.45724 l -0.0303,1.43439 -0.24832,0.12535 c -0.3192,0.16113 -1.26344,0.69812 -2.27469,1.29361 -4.77479,2.81172 -6.50572,3.70658 -7.54926,3.90285 l -0.1328,0.025 z"
       id="path1" /></g></svg>
