<?xml version="1.0" encoding="UTF-8" standalone="no"?>
<!-- Created with Inkscape (http://www.inkscape.org/) -->

<svg
   width="290mm"
   height="58mm"
   viewBox="0 0 290 58"
   version="1.1"
   id="svg308"
   xml:space="preserve"
   inkscape:version="1.2.2 (b0a8486541, 2022-12-01)"
   sodipodi:docname="Aufkleber.svg"
   inkscape:export-filename="Aufkleber.pdf"
   inkscape:export-xdpi="96"
   inkscape:export-ydpi="96"
   xmlns:inkscape="http://www.inkscape.org/namespaces/inkscape"
   xmlns:sodipodi="http://sodipodi.sourceforge.net/DTD/sodipodi-0.dtd"
   xmlns="http://www.w3.org/2000/svg"
   xmlns:svg="http://www.w3.org/2000/svg"><sodipodi:namedview
     id="namedview310"
     pagecolor="#505050"
     bordercolor="#ffffff"
     borderopacity="1"
     inkscape:showpageshadow="0"
     inkscape:pageopacity="0"
     inkscape:pagecheckerboard="1"
     inkscape:deskcolor="#505050"
     inkscape:document-units="mm"
     showgrid="false"
     showguides="false"
     inkscape:zoom="0.9983453"
     inkscape:cx="550.41076"
     inkscape:cy="113.68812"
     inkscape:window-width="1852"
     inkscape:window-height="869"
     inkscape:window-x="0"
     inkscape:window-y="0"
     inkscape:window-maximized="1"
     inkscape:current-layer="layer1" /><defs
     id="defs305" /><g
     inkscape:label="Ebene 1"
     inkscape:groupmode="layer"
     id="layer1"><g
       id="g414"
       transform="matrix(1.6753704,0,0,1.6753704,-409.92531,-8.7981118)"><path
         d="m 249.4184,36.374016 c 0.11595,0.16861 0.22931,0.29649 0.37872,0.43631 l 0.30531,0.22333 c 0.57819,0.338 1.18258,0.52191 1.8526,0.54577 l 8.26433,0.0122 0.41711,-0.11361 a 2.6445351,2.6445351 0 0 0 0.51775,-0.32269 l 0.27029,-0.29078 a 2.4422067,2.4422067 0 0 0 0.2773,-0.54214 l 0.0482,-0.21063 0.0174,-0.22385 -0.0195,-0.23294 -0.0625,-0.23553 -0.0916,-0.19403 -3.51014,-5.92874 c -0.40932,-0.76444 -0.0407,-1.53173 0.23242,-2.20564 -0.63837,-0.002 -1.52395,-0.0791 -2.01031,-0.78752 l -3.38018,-5.70307 -0.12581,-0.17353 -0.17769,-0.16835 -0.19662,-0.12918 -0.20596,-0.0918 -0.41555,-0.0859 a 2.5363672,2.5363672 0 0 0 -0.59816,0.0589 l -0.37224,0.14241 a 2.5187284,2.5187284 0 0 0 -0.49985,0.37093 l -0.24643,0.33851 -3.86784,7.31313 c -0.16757,0.39532 -0.26303,0.773 -0.31698,1.19919 a 5.0517235,5.0517235 0 0 0 -0.0127,0.55381 c 0.0259,0.27314 0.0734,0.49389 0.16835,0.75276 z m 11.68654,-9.65962 h 2.8466 l 0.23112,-0.0306 0.25395,-0.1009 0.2249,-0.15668 0.18936,-0.21607 0.1367,-0.27808 0.0521,-0.32528 -0.0482,-0.33228 -0.11906,-0.26225 -1.39166,-2.27594 -0.145,-0.19688 -0.2153,-0.19299 -0.276,-0.1437 -0.32554,-0.0604 -0.33228,0.047 -0.29027,0.13955 -0.22775,0.1974 -0.15459,0.20519 -1.41656,2.28267 -0.11076,0.25162 -0.0413,0.31905 0.0496,0.31024 0.12814,0.27678 0.19325,0.23034 0.24461,0.17353 0.283,0.10817 z m 14.49215,9.65962 3.36047,-5.69243 0.11854,-0.37845 c 0.13385,-0.78338 -0.002,-1.55871 -0.34914,-2.26997 l -3.90468,-7.33907 -0.29649,-0.31517 c -0.17587,-0.1297 -0.32839,-0.21867 -0.52683,-0.3066 l -0.38442,-0.10273 a 2.4136733,2.4136733 0 0 0 -0.6101,0.0109 l -0.2083,0.0576 -0.20622,0.0916 -0.19662,0.12918 -0.17742,0.16809 -0.12607,0.17379 -3.42324,5.76999 c -0.76288,0.73928 -1.24587,0.68299 -1.9657,0.7206 0.45654,0.58624 0.66665,1.56675 0.19144,2.27879 l -3.47097,5.85455 -0.0918,0.19351 -0.0628,0.23605 -0.0197,0.23398 0.0176,0.22333 0.12062,0.4057 c 0.0983,0.18988 0.19455,0.33436 0.33229,0.49908 l 0.30038,0.26302 c 0.18936,0.11855 0.3507,0.19507 0.56237,0.26796 l 0.41451,0.0584 8.22309,-0.0319 c 0.36315,-0.0329 0.6874,-0.10584 1.03291,-0.22231 l 0.33748,-0.14085 c 0.36471,-0.18547 0.6337,-0.37534 0.90425,-0.68558 z M 259.15377,7.761679 a 2.5348109,2.5348109 0 0 0 -0.56938,0.10324 l -0.34759,0.148893 c -0.49207,0.273143 -0.87545,0.604391 -1.22797,1.043028 l -0.18625,0.272625 -4.22425,7.102241 -0.11491,0.41763 c -0.0187,0.21633 -0.0148,0.3935 0.0137,0.60958 l 0.11258,0.38079 a 2.4336467,2.4336467 0 0 0 0.32477,0.51542 l 0.15641,0.14837 0.18391,0.12944 0.21115,0.1022 0.23423,0.0661 0.21349,0.0197 6.72067,-0.0309 c 1.00204,-0.006 1.60955,0.80672 1.93638,1.43991 0.25162,-0.6625 0.93616,-1.38232 1.79787,-1.4093 h 6.54507 l 0.21374,-0.0197 0.23501,-0.0667 0.21115,-0.10298 0.18391,-0.13073 0.28637,-0.31361 a 2.5550437,2.5550437 0 0 0 0.25421,-0.54421 l 0.0674,-0.39324 a 2.5602316,2.5602316 0 0 0 -0.0643,-0.61918 l -0.16627,-0.38417 -4.3179,-7.056067 -0.21218,-0.273402 c -0.42567,-0.4721 -0.87961,-0.82384 -1.47544,-1.052108 a 2.5379236,2.5379236 0 0 0 -0.56885,-0.10298 h -6.42678 z"
         fill="#a6a8aa"
         id="path201"
         style="clip-rule:evenodd;fill:#000000;fill-opacity:1;fill-rule:evenodd;stroke:none;stroke-width:0.259395" /><path
         d="m 251.97552,36.815246 8.14216,0.0122 c 0.12399,-0.034 0.22827,-0.0558 0.33929,-0.11803 a 1.9065555,1.9065555 0 0 0 0.18209,-0.12217 c 0.25473,-0.27419 0.4319,-0.5066 0.32632,-0.90478 l -3.55708,-6.02653 -0.17613,-0.42592 a 3.2922451,3.2922451 0 0 1 -0.096,-0.63812 c 0.009,-0.29156 0.042,-0.55821 0.1214,-0.84018 -0.42178,-0.0895 -0.77274,-0.2638 -1.11929,-0.51619 l -0.32165,-0.31335 -0.14552,-0.19118 -3.44841,-5.79852 -0.16445,-0.13048 a 0.95898442,0.95898442 0 0 0 -0.43086,-0.082 c -0.22697,0.0182 -0.4114,0.082 -0.59868,0.21607 -0.12814,0.0991 -0.19195,0.19559 -0.29104,0.33177 l -3.83983,7.26696 c -0.18028,0.45913 -0.29571,0.98181 -0.22853,1.47544 0.02,0.11854 0.0456,0.23449 0.0853,0.34759 l 3.32493,5.62706 a 1.5153873,1.5153873 0 0 0 0.49908,0.43967 c 0.45057,0.23917 0.88713,0.36471 1.39684,0.39065 z m 5.68517,-27.348042 -0.19377,0.273921 -4.15914,6.992781 c -0.034,0.12399 -0.0687,0.22489 -0.0713,0.35252 5.2e-4,0.0724 0.003,0.14578 0.0119,0.21841 0.1061,0.35978 0.21556,0.63033 0.61192,0.74239 l 6.80938,-0.021 0.49337,0.0485 0.46588,0.14371 c 0.36108,0.17224 0.66976,0.37249 0.94523,0.66664 0.31724,-0.33021 0.68507,-0.54499 1.11022,-0.70685 a 3.3749922,3.3749922 0 0 1 0.67287,-0.12114 l 6.6496,-0.01 0.1961,-0.075 c 0.11854,-0.0838 0.22282,-0.19973 0.29026,-0.32865 0.10039,-0.20596 0.1393,-0.39584 0.11906,-0.62592 -0.0192,-0.16109 -0.0703,-0.26485 -0.1367,-0.41893 L 267.20774,9.625265 266.98777,9.3529 c -0.33799,-0.35174 -0.76806,-0.706853 -1.25806,-0.804645 a 2.1394924,2.1394924 0 0 0 -0.18028,-0.02283 l -6.39902,0.0029 c -0.049,0.0052 -0.0978,0.01193 -0.14579,0.01971 -0.53176,0.10739 -0.99996,0.517494 -1.34392,0.919038 z m 16.08354,11.328572 c -0.16264,-0.0765 -0.34603,-0.0825 -0.52138,-0.0711 -0.21997,0.0215 -0.36471,0.11803 -0.49337,0.29597 l -3.46241,5.8351 c -0.41996,0.38909 -0.85678,0.7481 -1.42875,0.88298 0.0786,0.33981 0.0957,0.64123 0.0718,0.98934 l -0.0872,0.435 a 3.104443,3.104443 0 0 1 -0.27418,0.59687 l -3.49873,5.92251 -0.0366,0.20778 c 0.0117,0.145 0.0568,0.29493 0.13229,0.42048 0.0379,0.0594 0.0781,0.11803 0.12269,0.17224 l 0.20882,0.1808 c 0.0936,0.0542 0.1865,0.0988 0.28715,0.13774 l 0.28274,0.0394 8.15668,-0.034 c 0.62022,-0.0703 1.26041,-0.28014 1.68763,-0.75587 l 3.36306,-5.68232 0.0851,-0.30946 c 0.0516,-0.47988 -0.003,-0.90373 -0.15901,-1.35923 -0.0425,-0.11128 -0.0882,-0.21867 -0.13826,-0.32606 l -3.84683,-7.23142 c -0.0892,-0.0947 -0.15797,-0.17717 -0.26536,-0.24617 a 2.3848804,2.3848804 0 0 0 -0.18599,-0.10064 z m -12.59416,5.15444 2.83857,-0.0117 c 0.21944,-0.0872 0.297,-0.21037 0.26302,-0.44668 l -0.0553,-0.12114 -1.42875,-2.3151 c -0.0947,-0.0851 -0.13981,-0.11647 -0.26536,-0.13981 -0.18573,0.0262 -0.24798,0.1022 -0.35693,0.2472 l -1.41474,2.3094 c -0.0324,0.25187 0.0685,0.37534 0.29805,0.46328 z"
         fill="#e6e6e7"
         id="path203"
         style="clip-rule:evenodd;fill:#000000;fill-opacity:1;fill-rule:evenodd;stroke:none;stroke-width:0.259395" /><path
         d="m 259.69513,27.812156 5.97672,0.008 c 0.22801,0.0472 0.49493,0.10869 0.66016,0.28664 0.14293,0.20881 0.0457,0.54654 -0.0213,0.76599 l -2.99835,5.03097 c -0.1865,0.24332 -0.43578,0.53098 -0.75665,0.58105 -0.36964,0.0288 -0.66976,-0.3603 -0.85445,-0.6267 l -2.94725,-4.97261 c -0.0638,-0.23683 -0.0962,-0.47002 0.0101,-0.69751 0.19973,-0.30505 0.5979,-0.34889 0.93097,-0.37535 z m 4.88259,-8.22309 5.97673,0.008 c 0.22749,0.0472 0.49493,0.10869 0.65964,0.28664 0.14293,0.20881 0.0462,0.54628 -0.0207,0.76599 l -2.99887,5.03123 c -0.18702,0.24383 -0.43474,0.52995 -0.75588,0.58079 -0.37145,0.0277 -0.66872,-0.35771 -0.8547,-0.6267 l -2.94751,-4.97287 c -0.0638,-0.23683 -0.0962,-0.47002 0.0101,-0.69751 0.20026,-0.30479 0.59843,-0.34863 0.93123,-0.37509 z m -9.81629,0 5.9762,-0.0197 c 0.2594,0.054 0.57119,0.13047 0.73695,0.35641 0.11698,0.221 0.0529,0.49311 -0.0158,0.7206 l -3.08213,5.03434 c -0.18703,0.24383 -0.43475,0.52995 -0.75562,0.58079 -0.37145,0.0277 -0.66898,-0.35771 -0.85497,-0.6267 l -2.94725,-4.97261 c -0.0635,-0.23735 -0.0962,-0.47054 0.0104,-0.69803 0.19947,-0.30505 0.59946,-0.34863 0.93227,-0.37509 z"
         fill="#ffffff"
         id="path205"
         style="clip-rule:evenodd;fill:#000000;fill-opacity:1;fill-rule:evenodd;stroke:none;stroke-width:0.259395" /></g><path
       d="m 70.316939,36.651044 v -9.206436 l 14.58764,-0.03385 c 5.1986,0.194996 6.94787,-8.27032 2.01096,-8.957003 H 70.318649 V 9.2473181 l 17.17823,-0.0035 c 6.81259,0.391347 12.325598,6.1504899 12.325598,13.0561779 0,6.352457 -4.518958,11.192818 -10.398948,13.258214 L 102.03365,53.683057 H 90.389429 L 78.629384,36.655895 H 70.316939 Z M 59.303286,9.0246963 h 9.206426 V 53.906534 H 59.303286 Z M 115.11794,44.668479 c -2.82162,-0.214632 -5.29482,-1.967912 -6.43154,-4.559308 h 22.31535 v -6.110136 h -22.3136 c 1.1364,-2.591471 3.60844,-4.345755 6.42979,-4.562829 v -0.07584 h 15.88204 v -9.206435 h -16.23331 v 0.06094 c -8.86573,0.475979 -15.950571,7.85582 -15.950571,16.835708 0,9.101081 7.271031,16.554724 16.300081,16.853311 V 53.8768 h 15.88205 v -9.206429 h -15.88205 v -0.0018 z m 25.8665,9.127422 V 8.9105439 c 2.04259,0 29.51611,-0.020313 29.51611,0.047394 6.39465,0.067707 11.58795,5.3004971 11.58795,11.7073891 0,7.618777 -7.00052,10.811696 -6.94962,10.839795 4.19579,1.796668 6.94962,6.157528 6.94962,10.695782 0,5.837885 -6.07851,11.254227 -11.8514,11.703867 -9.75437,0 -19.66862,-0.109001 -29.25266,-0.109001 z m 9.20644,-9.097562 18.8397,-0.07176 c 5.67978,-2.92595 1.80018,-8.277361 0,-8.672498 h -18.8397 z m 0,-17.950975 h 17.0957 c 4.78057,-0.230202 4.89473,-8.647921 2.19356,-8.630384 H 150.19088 Z M 185.86979,9.6007471 h 9.20644 v 8.0543359 h -9.20644 z m 0,10.9311319 h 9.20644 v 33.372893 h -9.20644 z m 25.94561,0 4.84733,0.0069 c 5.42691,0.251192 9.82466,4.750717 9.82466,10.27776 v 2.58349 h -9.2065 v -2.123354 c -0.034,-1.018649 -0.45297,-1.461249 -1.34878,-1.543784 h -4.11671 z m -11.56338,0 h 9.20996 v 33.372893 h -9.20996 z M 234.20449,9.6007471 h 9.20642 V 19.955828 h 7.59766 v 8.057789 h -7.58363 v 15.140937 c 0.034,1.01865 0.45295,1.46125 1.34533,1.543785 h 6.50703 v 9.206433 l -7.23414,-0.01348 c -5.42691,-0.254577 -9.82467,-4.754238 -9.82467,-10.281281 V 28.008877 h -6.22246 V 19.95109 h 6.20846 z m 33.28507,19.6317279 v -9.206434 l 10.08804,0.01348 c 5.42345,0.251192 9.82115,4.750717 9.82115,10.277761 v 23.590409 h -9.20644 v -23.13021 c -0.034,-1.01865 -0.44957,-1.461182 -1.34525,-1.543785 h -9.3575 z M 256.07371,9.0246963 h 9.20644 V 53.906534 h -9.20644 z"
       id="path409"
       style="clip-rule:evenodd;fill:#000000;fill-opacity:1;fill-rule:evenodd;stroke:none;stroke-width:1.75628"
       sodipodi:nodetypes="cccccccsccccccccccccccccccccccsccccccccccscscccccccccccccccccccccccccsccccccccccccccccccccccsccccccccsccccccccccc" /></g></svg>
